<svg width="65" height="97" viewBox="0 0 65 97" fill="none" xmlns="http://www.w3.org/2000/svg">
<g clip-path="url(#clip0_118_5811)">
<path d="M0 0.523712C5.445 0.523712 10.89 0.523712 16.5 0.523712C16.5 2.00871 16.5 3.49371 16.5 5.02371C17.0652 4.70431 17.6303 4.3849 18.2126 4.05582C24.4613 0.814675 29.6498 -0.15482 36.6718 0.0194399C38.221 0.0553773 39.7664 0.0501777 41.3159 0.0403139C50.7465 0.119048 54.8536 4.05662 61.4062 10.4612C62.0656 11.0771 62.725 11.6929 63.4043 12.3274C68.6745 17.4913 68.6745 17.4913 68.7832 21.0931C68.128 24.3869 67.1649 25.5251 64.5 27.5237C63.5017 27.7804 62.502 28.0319 61.5 28.2737C59.3673 31.3269 59.7134 34.8832 59.6411 38.4734C59.5528 40.6432 59.4863 42.1791 58.2393 43.9973C57 44.7737 57 44.7737 54.75 44.7737C54.7696 45.2845 54.7893 45.7953 54.8095 46.3215C54.8874 48.6335 54.9362 50.9453 54.9844 53.2581C55.0158 54.062 55.0472 54.8659 55.0796 55.6941C55.0917 56.4651 55.1038 57.2362 55.1162 58.0306C55.1358 58.7414 55.1555 59.4523 55.1757 60.1848C54.75 62.0237 54.75 62.0237 52.9986 63.4071C50.467 64.5048 49.1277 64.2663 46.5 63.5237C45.7575 63.0287 45.015 62.5337 44.25 62.0237C43.9257 60.3388 43.9257 60.3388 43.8662 58.2679C43.8396 57.5283 43.813 56.7887 43.7856 56.0266C43.7687 55.2522 43.7518 54.4778 43.7344 53.68C43.7088 52.8998 43.6831 52.1196 43.6567 51.3157C43.5947 49.3851 43.5429 47.4548 43.5 45.5237C43.0205 45.3072 42.5409 45.0906 42.0469 44.8675C40.5 44.0237 40.5 44.0237 39.75 42.5237C39.5695 39.6986 39.4627 36.8771 39.3574 34.0481C38.9975 31.2547 38.3817 29.7794 36.75 27.5237C36.1312 28.0032 35.5125 28.4828 34.875 28.9768C32.1585 30.7582 29.4925 31.4382 26.25 31.2737C22.8928 30.5107 20.1168 29.4349 17.25 27.5237C16.9431 27.8899 16.6362 28.2561 16.32 28.6333C14.7015 30.0316 13.9875 30.047 11.8799 30.0198C10.9873 30.014 10.9873 30.014 10.0767 30.0081C9.14926 29.9849 9.14926 29.9849 8.20312 29.9612C7.58196 29.9573 6.96079 29.9535 6.3208 29.9495C1.73208 29.8898 1.73208 29.8898 0 29.0237C0 19.6187 0 10.2137 0 0.523712ZM3.75 4.27371C3.75 11.2037 3.75 18.1337 3.75 25.2737C6.72 25.2737 9.69 25.2737 12.75 25.2737C12.75 18.3437 12.75 11.4137 12.75 4.27371C9.78 4.27371 6.81 4.27371 3.75 4.27371ZM21.2368 7.14993C19.5 8.02371 19.5 8.02371 16.5 8.77371C16.5 12.7337 16.5 16.6937 16.5 20.7737C17.2425 21.0212 17.985 21.2687 18.75 21.5237C19.1058 22.127 19.4616 22.7303 19.8281 23.3518C21.1298 25.4866 21.732 25.8795 24 26.7737C27.2083 27.2156 29.984 27.0769 33 25.8831C34.8372 24.2181 34.8744 23.1642 35.25 20.7737C36.6857 20.7868 36.6857 20.7868 38.1504 20.8001C39.4023 20.8071 40.6543 20.8139 41.9062 20.8206C42.5376 20.8269 43.1689 20.8332 43.8193 20.8396C44.4236 20.842 45.0278 20.8445 45.6504 20.847C46.2081 20.8509 46.7658 20.8548 47.3405 20.8589C48.8185 20.8621 48.8185 20.8621 50.25 20.0237C50.282 18.7741 50.2805 17.5233 50.25 16.2737C49.4554 15.3105 49.4554 15.3105 47.6248 15.4386C46.4053 15.4445 46.4053 15.4445 45.1611 15.4505C43.8451 15.4541 43.8451 15.4541 42.5024 15.4578C41.5787 15.4641 40.6549 15.4704 39.7031 15.4768C38.7765 15.4802 37.8498 15.4836 36.895 15.4871C34.5966 15.496 32.2983 15.5083 30 15.5237C30 14.0387 30 12.5537 30 11.0237C30.9417 11.0324 31.8833 11.0411 32.8535 11.0501C43.565 11.425 43.565 11.425 54 9.52371C51.612 6.72049 49.4125 4.58215 45.7394 3.78006C43.1473 3.6214 40.6111 3.63122 38.0156 3.71121C37.146 3.70348 36.2764 3.69574 35.3804 3.68778C30.0087 3.76024 26.0029 4.65385 21.2368 7.14993ZM54 15.5237C55.3993 18.2447 55.3993 18.2447 57.75 20.0237C57.164 18.1521 57.164 18.1521 56.25 16.2737C55.5075 16.0262 54.765 15.7787 54 15.5237ZM62.25 18.5237C62.25 20.2562 62.25 21.9887 62.25 23.7737C62.9925 23.2787 63.735 22.7837 64.5 22.2737C64.2391 20.7922 64.2391 20.7922 63.75 19.2737C63.255 19.0262 62.76 18.7787 62.25 18.5237ZM50.25 23.7737C47.8975 24.0843 47.8975 24.0843 45.2344 24.2425C44.3498 24.2985 43.4651 24.3546 42.5537 24.4124C41.876 24.4491 41.1983 24.4859 40.5 24.5237C40.995 25.5137 41.49 26.5037 42 27.5237C42.5172 27.398 43.0345 27.2723 43.5674 27.1429C48.5989 26.0524 52.0609 26.0663 57 27.5237C57.3 24.6503 57.3 24.6503 56.0156 23.2112C53.6678 21.4721 52.5525 22.2387 50.25 23.7737ZM46.5 29.7737C46.2525 30.2687 46.005 30.7637 45.75 31.2737C47.73 31.0262 49.71 30.7787 51.75 30.5237C51.75 30.2762 51.75 30.0287 51.75 29.7737C50.0175 29.7737 48.285 29.7737 46.5 29.7737ZM51.75 30.5237C51.9975 32.5037 52.245 34.4837 52.5 36.5237C50.7675 36.5237 49.035 36.5237 47.25 36.5237C47.0025 36.0287 46.755 35.5337 46.5 35.0237C45.51 34.7762 44.52 34.5287 43.5 34.2737C43.5 36.5012 43.5 38.7287 43.5 41.0237C45.3594 41.0439 47.2186 41.0588 49.0781 41.0706C49.6084 41.0769 50.1387 41.0832 50.6851 41.0896C52.0402 41.0961 53.3954 41.0629 54.75 41.0237C56.0539 39.7198 55.6291 37.9647 55.6406 36.1956C55.6513 35.4541 55.6619 34.7125 55.6729 33.9485C55.6961 31.8993 55.6961 31.8993 54 30.5237C53.2575 30.5237 52.515 30.5237 51.75 30.5237ZM48 45.5237C48 50.2262 48 54.9287 48 59.7737C48.99 59.7737 49.98 59.7737 51 59.7737C51 55.0712 51 50.3687 51 45.5237C50.01 45.5237 49.02 45.5237 48 45.5237Z" fill="#333333" fill-opacity="0.05"/>
<path d="M52.3364 66.2801C54.3296 67.0534 54.3296 67.0534 56.0276 66.1749C56.6913 65.7629 56.6913 65.7629 57.3683 65.3426C60.136 65.6243 62.5434 66.5817 65.1027 67.6395C66.0961 68.047 66.0961 68.047 67.1095 68.4628C67.6074 68.6706 68.1053 68.8785 68.6183 69.0926C68.829 72.7459 68.1532 75.3623 66.84 78.7635C66.6587 79.2382 66.4773 79.7128 66.2905 80.2018C65.9087 81.197 65.5234 82.1909 65.1347 83.1835C64.5379 84.7079 63.9515 86.2359 63.3668 87.765C60.4993 95.2116 60.4993 95.2116 59.6183 96.0926C54.9612 95.8475 51.6479 94.6468 47.6183 92.3426C47.6183 91.3526 47.6183 90.3626 47.6183 89.3426C47.0837 89.5679 46.549 89.7932 45.9982 90.0253C44.9207 90.4531 44.9207 90.4531 43.8214 90.8895C43.1166 91.1767 42.4118 91.4638 41.6857 91.7596C36.5946 93.0404 31.7467 90.9155 26.9845 89.1903C26.3165 88.9505 25.6486 88.7108 24.9603 88.4638C23.5556 87.9571 22.1519 87.4477 20.7492 86.9355C18.6058 86.1563 16.4564 85.3952 14.3063 84.6346C12.9382 84.1387 11.5705 83.6416 10.2033 83.1434C9.56261 82.919 8.92194 82.6947 8.26186 82.4635C4.66177 81.1249 2.44797 79.9995 0.36831 76.5926C-0.351639 73.7499 -0.0283906 71.2826 1.44643 68.7176C4.36004 67.0121 6.82151 67.0515 10.1183 67.5926C12.2533 68.3851 14.3084 69.2439 16.3615 70.2294C17.3549 70.4092 17.3549 70.4092 18.3683 70.5926C19.3736 69.8947 20.3744 69.1894 21.3498 68.4503C24.9653 66.4082 29.3752 66.0497 33.4152 65.3426C34.3506 65.1522 35.2859 64.9617 36.2497 64.7655C42.3448 63.6815 46.5707 63.9606 52.3364 66.2801ZM32.0558 70.0301C31.1944 70.1839 30.333 70.3376 29.4455 70.496C28.2142 70.7352 28.2142 70.7352 26.9582 70.9794C26.2091 71.1208 25.4601 71.2621 24.6884 71.4078C22.7524 71.9291 22.7524 71.9291 21.8627 73.6622C21.6995 74.1343 21.5364 74.6063 21.3683 75.0926C22.1223 76.3674 22.1223 76.3674 23.6183 77.3426C25.6069 77.2998 27.3434 77.1411 29.2902 76.827C30.0914 76.7119 30.0914 76.7119 30.9088 76.5945C35.0061 75.9892 39.078 75.2556 43.1183 74.3426C43.4896 76.1989 43.4896 76.1989 43.8683 78.0926C43.0997 78.1922 42.3311 78.2918 41.5392 78.3944C40.5187 78.5281 39.4982 78.6619 38.4777 78.7958C37.9725 78.861 37.4674 78.9263 36.9469 78.9935C34.8131 79.2746 32.6987 79.5765 30.588 79.9999C27.7365 80.5682 24.9999 80.8185 22.1183 80.3426C19.7961 78.5145 18.5011 76.7918 16.8683 74.3426C15.0233 73.3851 15.0233 73.3851 12.8839 72.6551C12.1753 72.3883 11.4666 72.1215 10.7365 71.8465C8.46181 71.3054 7.09537 71.4598 4.86831 72.0926C4.10998 74.3795 4.10998 74.3795 4.86831 76.5926C6.12155 77.2526 6.12155 77.2526 7.66909 77.8075C8.26289 78.0351 8.85668 78.2626 9.46847 78.4971C10.116 78.7378 10.7636 78.9784 11.4308 79.2264C12.0963 79.4758 12.7617 79.7252 13.4473 79.9821C14.8611 80.5089 16.276 81.0326 17.6919 81.5535C19.8438 82.3492 21.9872 83.1655 24.131 83.9828C25.5065 84.4924 26.8825 85.0007 28.2589 85.5077C28.8944 85.7529 29.5298 85.9982 30.1845 86.2508C34.5534 87.8228 37.8263 87.9335 42.3683 87.0926C43.0383 87.0385 43.7083 86.9844 44.3986 86.9286C46.1614 86.6931 47.5222 86.3891 49.1183 85.5926C50.6869 83.5194 51.3817 81.3166 52.1183 78.8426C52.3407 78.1456 52.563 77.4485 52.7921 76.7303C53.347 74.9412 53.8707 73.1484 54.3683 71.3426C53.0907 70.8334 51.8085 70.3357 50.5246 69.8426C49.8111 69.5642 49.0976 69.2858 48.3624 68.9989C42.9369 67.4123 37.4643 68.978 32.0558 70.0301ZM58.8683 69.8426C57.7165 72.9167 56.5801 75.9962 55.4464 79.077C55.1182 79.9524 54.79 80.8279 54.4518 81.7298C53.9914 82.9879 53.9914 82.9879 53.5216 84.2714C53.2349 85.0451 52.9482 85.8188 52.6528 86.616C51.9072 88.6505 51.9072 88.6505 52.8683 90.8426C54.3533 91.0901 55.8383 91.3376 57.3683 91.5926C58.4993 88.6418 59.6221 85.6879 60.7433 82.7333C61.0653 81.8936 61.3872 81.0539 61.7189 80.1888C62.0234 79.384 62.328 78.5791 62.6417 77.7499C62.9245 77.0075 63.2073 76.2652 63.4987 75.5004C64.2342 73.5703 64.2342 73.5703 64.1183 71.3426C62.3858 70.8476 60.6533 70.3526 58.8683 69.8426Z" fill="#333333" fill-opacity="0.05"/>
</g>
<defs>
<clipPath id="clip0_118_5811">
<rect width="65" height="96.0927" fill="white"/>
</clipPath>
</defs>
</svg>
