<svg width="96" height="96" viewBox="0 0 96 96" fill="none" xmlns="http://www.w3.org/2000/svg">
<path d="M55.5 2.99996C58.0481 4.02897 60.3325 5.40967 62.6719 6.84371C63.3406 7.24046 64.0094 7.63721 64.6985 8.04598C66.1318 8.89975 67.5612 9.75996 68.9872 10.6259C71.346 12.0582 73.7156 13.4713 76.0869 14.8828C77.6628 15.827 79.238 16.7723 80.8125 17.7187C81.5671 18.1713 82.3218 18.6239 83.0993 19.0902C83.7948 19.5135 84.4904 19.9368 85.207 20.373C85.8255 20.7478 86.444 21.1225 87.0813 21.5086C88.5 22.5 88.5 22.5 89.25 24C89.4844 26.5781 89.4844 26.5781 89.25 29.25C87.9844 30.7031 87.9844 30.7031 86.25 31.5C84.1875 31.6406 84.1875 31.6406 82.5 31.5C82.2525 32.2425 82.005 32.985 81.75 33.75C83.4825 33.75 85.215 33.75 87 33.75C87.3684 37.2963 86.2127 39.248 84.375 42.2343C83.8877 43.0358 83.4005 43.8373 82.8984 44.6631C82.3299 45.5723 82.3299 45.5723 81.75 46.5C82.3054 47.4353 82.3054 47.4353 82.8721 48.3896C83.3526 49.2046 83.8331 50.0196 84.3281 50.8593C84.8067 51.6685 85.2852 52.4778 85.7783 53.3115C87.3792 56.1793 87.8535 58.2186 87.8437 61.4531C87.8466 62.4146 87.8466 62.4146 87.8496 63.3955C87.757 65.1201 87.4831 66.5973 87 68.25C87.8353 68.4356 88.6706 68.6212 89.5312 68.8125C92.25 69.75 92.25 69.75 93.375 71.0156C93.9339 73.6008 93.6944 75.4539 93 78C89.7488 80.4313 85.7848 81.7587 82.04 83.2588C81.3437 83.5386 80.6475 83.8184 79.9301 84.1067C78.4601 84.6954 76.9894 85.2821 75.518 85.8671C73.2773 86.7609 71.0428 87.6691 68.8081 88.5776C67.3753 89.1493 65.9422 89.7201 64.5088 90.29C63.8461 90.5618 63.1834 90.8337 62.5006 91.1137C56.8817 93.3148 52.5096 93.5982 46.5967 92.0156C45.8004 91.8122 45.0041 91.6088 44.1837 91.3993C43.3548 91.185 42.5259 90.9707 41.6719 90.75C33.8652 88.8223 26.7614 87.8974 18.75 88.5C18.75 89.7375 18.75 90.975 18.75 92.25C16.1406 92.2716 13.5313 92.285 10.9219 92.2968C9.80449 92.3063 9.80449 92.3063 8.66454 92.3159C7.95636 92.3183 7.24819 92.3207 6.51855 92.3232C5.86264 92.3271 5.20672 92.3311 4.53094 92.3351C2.99999 92.25 2.99999 92.25 2.24999 91.5C2.17419 89.3455 2.14522 87.2094 2.15038 85.0547C2.14967 84.4083 2.14895 83.7619 2.14821 83.0959C2.1477 81.7265 2.14909 80.357 2.15221 78.9876C2.15623 76.884 2.15226 74.7804 2.14745 72.6767C2.14795 71.3496 2.14891 70.0224 2.15038 68.6953C2.14811 67.7449 2.14811 67.7449 2.14578 66.7753C2.16378 62.3362 2.16378 62.3362 2.99999 61.5C4.11653 61.4349 5.23608 61.4197 6.35448 61.4267C7.02882 61.4291 7.70317 61.4316 8.39794 61.434C9.46166 61.4435 9.46166 61.4435 10.5469 61.4531C11.2589 61.4565 11.971 61.4599 12.7046 61.4633C14.4698 61.4722 16.2349 61.4846 18 61.5C18.2475 62.7375 18.495 63.975 18.75 65.25C21.3487 64.8787 21.3487 64.8787 24 64.5C24 53.61 24 42.72 24 31.5C22.2675 31.5 20.535 31.5 18.75 31.5C16.5 30 16.5 30 15.8437 28.2656C15.7165 25.5294 16.3354 24.6917 18 22.5C20.0038 20.9343 22.1516 19.6388 24.3281 18.3281C24.9502 17.9444 25.5724 17.5607 26.2134 17.1654C28.2193 15.9329 30.2333 14.7147 32.25 13.5C32.9433 13.0812 33.6366 12.6625 34.3509 12.231C38.1738 9.9248 42.0037 7.63099 45.8437 5.3536C49.2887 3.26237 51.4394 2.31227 55.5 2.99996ZM46.9541 8.19723C46.1807 8.66685 45.4073 9.13647 44.6105 9.62032C43.7955 10.1272 42.9804 10.634 42.1406 11.1562C40.8897 11.9223 40.8897 11.9223 39.6136 12.7038C37.9373 13.7323 36.2632 14.7645 34.5915 15.8005C32.5343 17.074 30.4698 18.3342 28.4004 19.5879C27.3238 20.2454 26.2476 20.9036 25.1719 21.5625C24.6853 21.8572 24.1987 22.152 23.6973 22.4557C21.4759 23.8358 20.2262 24.7857 18.75 27C18.9975 27.495 19.245 27.99 19.5 28.5C23.0955 28.1081 25.4432 27.1023 28.4941 25.1836C29.3323 24.6615 30.1706 24.1394 31.0342 23.6015C31.9083 23.047 32.7823 22.4923 33.6562 21.9375C34.524 21.3938 35.3921 20.8508 36.2607 20.3086C37.1094 19.7773 37.958 19.2461 38.8066 18.7148C39.6204 18.2058 40.4342 17.6968 41.2727 17.1723C42.6125 16.3167 43.9402 15.4407 45.241 14.5268C48.061 12.5733 50.3257 11.3666 53.9092 11.6198C57.2636 12.4214 60.0833 14.2483 63 16.0312C63.6839 16.4341 64.3679 16.8369 65.0726 17.252C68.3673 19.2057 71.6177 21.2213 74.8389 23.2939C75.3836 23.643 75.9284 23.9922 76.4897 24.3519C77.5061 25.0095 78.5163 25.6768 79.519 26.3551C82.0821 28.0942 82.0821 28.0942 85.0752 28.3213C85.4629 28.1327 85.8506 27.9442 86.25 27.75C86.2545 26.3513 86.2545 26.3513 85.5 24.75C83.8453 23.5072 82.2599 22.4642 80.4844 21.4218C79.965 21.1071 79.4457 20.7925 78.9106 20.4682C77.1135 19.3843 75.3075 18.3164 73.5 17.25C72.0371 16.3818 70.5742 15.5137 69.1113 14.6455C65.6067 12.5689 62.0956 10.5035 58.5796 8.44625C57.2802 7.66782 56.0103 6.8402 54.75 5.99996C51.5003 5.57396 49.699 6.511 46.9541 8.19723ZM47.6426 16.0341C47.0193 16.4138 46.396 16.7934 45.7538 17.1846C45.1029 17.5929 44.4519 18.0012 43.7812 18.4218C43.1143 18.8316 42.4474 19.2413 41.7603 19.6635C39.8345 20.8501 37.9162 22.0479 36 23.25C35.5078 23.5567 35.0155 23.8634 34.5084 24.1794C30.5505 26.4463 30.5505 26.4463 27 29.25C26.9302 30.3551 26.9119 31.4636 26.9148 32.5709C26.9149 33.2766 26.915 33.9823 26.915 34.7094C26.9189 35.4765 26.9228 36.2437 26.9267 37.0341C26.9278 37.8155 26.9289 38.5968 26.93 39.4019C26.9342 41.9085 26.9436 44.4152 26.9531 46.9218C26.9569 48.6167 26.9603 50.3115 26.9634 52.0063C26.9717 56.1709 26.9842 60.3354 27 64.5C27.495 64.5 27.99 64.5 28.5 64.5C28.7475 57.3225 28.995 50.145 29.25 42.75C40.7587 42.3787 40.7587 42.3787 52.5 42C52.5 49.1775 52.5 56.355 52.5 63.75C53.2425 63.9975 53.985 64.245 54.75 64.5C54.7974 63.946 54.8447 63.392 54.8935 62.8213C55.5739 57.1848 57.0959 53.6134 60.5508 49.1045C61.7333 47.2963 61.7333 47.2963 61.0224 45.3515C60.685 44.7405 60.3476 44.1295 60 43.5C59.5345 42.64 59.5345 42.64 59.0596 41.7627C58.4039 40.6373 57.7477 39.5123 57.0908 38.3877C56.2917 36.8311 55.8447 35.4581 55.5 33.75C56.7195 33.795 57.9383 33.8616 59.1562 33.9375C60.1743 33.9897 60.1743 33.9897 61.2129 34.0429C63 34.5 63 34.5 63.9902 36.0351C64.1584 36.5185 64.3267 37.0019 64.5 37.5C65.2425 37.5 65.985 37.5 66.75 37.5C67.1986 36.9895 67.6472 36.479 68.1094 35.9531C69.75 34.5 69.75 34.5 72 34.5C74.482 35.3273 75.5859 36.2659 77.25 38.25C79.0846 36.4153 79.2196 35.5072 79.5146 32.956C79.5814 30.68 79.5814 30.68 78.75 28.5C75.5477 25.5569 71.8584 23.6903 68.0156 21.7031C66.9852 21.142 65.9564 20.5781 64.9292 20.0112C63.0459 18.9757 61.1549 17.9588 59.252 16.9597C57 15.75 57 15.75 54.75 14.25C51.7964 13.9142 50.1428 14.4896 47.6426 16.0341ZM60 36.75C60.75 38.25 60.75 38.25 60.75 38.25L60 36.75ZM70.5 36.75C69.6415 37.7013 69.6415 37.7013 68.7656 38.6718C66.75 40.5 66.75 40.5 64.7812 40.4531C63 39.75 63 39.75 60.75 38.25C61.2188 39.512 61.7263 40.7597 62.25 42C62.5023 42.6497 62.7547 43.2993 63.0146 43.9687C64.7026 45.9929 65.042 46.0562 67.541 46.3271C68.7455 46.3663 69.9512 46.3758 71.1562 46.3593C71.77 46.3568 72.3837 46.3543 73.016 46.3517C75.7918 46.2328 77.4838 46.133 79.749 44.4521C80.7561 42.8588 81.404 41.6026 81.75 39.75C81.5025 39.255 81.255 38.76 81 38.25C80.7061 38.6212 80.4122 38.9925 80.1094 39.375C78.75 40.5 78.75 40.5 76.9219 40.875C74.2373 40.3511 73.562 38.9045 72 36.75C71.505 36.75 71.01 36.75 70.5 36.75ZM31.5 45C31.5 51.435 31.5 57.87 31.5 64.5C37.44 64.2525 43.38 64.005 49.5 63.75C49.5 57.5625 49.5 51.375 49.5 45C43.56 45 37.62 45 31.5 45ZM61.5 50.6718C60.6334 52.3164 60.6334 52.3164 60 54C59.5205 54.8507 59.0409 55.7015 58.5469 56.5781C57.5332 59.977 57.4957 62.5966 58.5 66C60.88 69.7799 63.2605 71.4112 67.5 72.75C69.9696 72.9395 69.9696 72.9395 72 72.75C70.8862 72.3787 70.8862 72.3787 69.75 72C69.6572 71.4122 69.5644 70.8243 69.4687 70.2187C69.1566 68.1445 69.1566 68.1445 67.5 66.75C67.4062 64.7812 67.4062 64.7812 67.5 63C67.9331 63.495 68.3662 63.99 68.8125 64.5C70.4974 66.3321 70.4974 66.3321 73.5 66C73.5264 64.585 73.5264 64.585 72.75 63C71.8837 62.5978 71.0175 62.1956 70.125 61.7812C68.6924 61.0605 68.6924 61.0605 67.5 60C66.8089 57.4963 66.7154 55.0884 66.75 52.5C67.74 52.5 68.73 52.5 69.75 52.5C69.9975 51.51 70.245 50.52 70.5 49.5C70.995 49.5 71.49 49.5 72 49.5C72.0773 49.964 72.1547 50.4281 72.2344 50.9062C72.6564 52.7739 72.6564 52.7739 75 54C75.5156 55.9687 75.5156 55.9687 75.75 57.75C75.0075 57.9975 74.265 58.245 73.5 58.5C73.2525 57.51 73.005 56.52 72.75 55.5C71.76 55.5 70.77 55.5 69.75 55.5C69.9975 56.7375 70.245 57.975 70.5 59.25C71.227 59.4511 71.954 59.6522 72.7031 59.8593C73.4611 60.1532 74.219 60.4472 75 60.75C75.8683 63.3549 75.8015 65.5205 75.75 68.25C74.76 68.4975 73.77 68.745 72.75 69C72.75 69.99 72.75 70.98 72.75 72C78.2772 71.4627 78.2772 71.4627 82.5469 68.25C84.7036 64.9106 85.259 62.4606 84.75 58.5C83.9759 56.3502 82.9465 54.4425 81.75 52.5C81.3652 51.7111 80.9804 50.9222 80.584 50.1093C78.6026 47.8304 78.316 47.662 75.498 47.3496C74.2387 47.3148 72.9782 47.3142 71.7187 47.3437C70.75 47.3567 70.75 47.3567 69.7617 47.3699C66.2326 47.544 63.7646 47.6929 61.5 50.6718ZM5.24999 64.5C5.24999 72.6675 5.24999 80.835 5.24999 89.25C8.71499 89.25 12.18 89.25 15.75 89.25C15.75 81.0825 15.75 72.915 15.75 64.5C12.285 64.5 8.81999 64.5 5.24999 64.5ZM27.6094 67.0781C26.541 67.1221 26.541 67.1221 25.4511 67.1671C24.7914 67.1986 24.1318 67.2302 23.4521 67.2627C22.5774 67.3039 22.5774 67.3039 21.685 67.346C20.1872 67.4222 20.1872 67.4222 18.75 68.25C18.75 73.9425 18.75 79.635 18.75 85.5C21.488 85.3607 21.488 85.3607 24.2812 85.2187C31.4868 85.0497 38.1555 86.6239 45.1036 88.3993C46.2995 88.7043 46.2995 88.7043 47.5195 89.0156C48.5807 89.2984 48.5807 89.2984 49.6633 89.5869C54.6961 90.5832 58.1232 89.5084 62.7392 87.6181C63.6599 87.2516 63.6599 87.2516 64.5992 86.8776C66.5534 86.0975 68.5032 85.3066 70.4531 84.5156C71.7609 83.992 73.069 83.469 74.3774 82.9467C77.3247 81.7672 80.2716 80.5871 83.2084 79.3818C84.2358 78.9607 85.2658 78.5459 86.2983 78.1374C89.0544 77.154 89.0544 77.154 90.7969 74.9531C90.9099 73.3179 90.9099 73.3179 89.25 72C82.8131 71.5798 76.092 74.1134 69.9375 75.7968C67.8806 76.359 65.8218 76.9135 63.7617 77.4638C62.4076 77.8337 62.4076 77.8337 61.0261 78.2111C56.535 79.1691 53.835 78.8695 49.7812 76.7812C44.8227 74.5629 41.1322 75.0713 36 76.5C35.7525 75.7575 35.505 75.015 35.25 74.25C35.687 74.1678 36.124 74.0856 36.5742 74.0009C38.6368 73.602 40.6934 73.1789 42.75 72.75C43.5582 72.5866 44.3665 72.4232 45.1992 72.2549C45.9997 72.0779 46.8002 71.901 47.625 71.7187C48.3752 71.5582 49.1255 71.3977 49.8984 71.2324C51.8612 70.6649 51.8612 70.6649 52.7578 68.9238C52.9202 68.4539 53.0826 67.9841 53.25 67.5C51.7946 66.0446 49.6058 66.6505 47.6698 66.6458C46.9899 66.6492 46.3099 66.6527 45.6094 66.6562C44.5669 66.6592 44.5669 66.6592 43.5035 66.6623C38.201 66.6974 32.9069 66.8504 27.6094 67.0781ZM56.25 68.25C56.0025 69.4875 55.755 70.725 55.5 72C53.52 72.495 51.54 72.99 49.5 73.5C52.2969 75.3646 54.2499 76.6046 57.6709 76.3183C58.3931 76.1617 59.1153 76.0051 59.8594 75.8437C60.5912 75.691 61.3231 75.5382 62.0771 75.3808C62.9052 75.1923 62.9052 75.1923 63.75 75C63.2086 74.5823 62.6672 74.1647 62.1094 73.7343C60.0191 72.0156 58.1352 70.189 56.25 68.25Z" fill="white" fill-opacity="0.2"/>
<path d="M33.75 46.4999C35.9844 46.4798 38.2187 46.4649 40.4531 46.4531C41.0907 46.4468 41.7283 46.4405 42.3853 46.434C42.9919 46.4316 43.5986 46.4292 44.2236 46.4267C44.7853 46.4228 45.3469 46.4188 45.9256 46.4148C47.25 46.4999 47.25 46.4999 48 47.2499C48.0539 48.3894 48.0629 49.5312 48.0469 50.6718C48.0401 51.2915 48.0333 51.9112 48.0264 52.5497C48.0177 53.0283 48.009 53.5069 48 53.9999C45.6406 54.0216 43.2813 54.035 40.9219 54.0468C39.9118 54.0562 39.9118 54.0562 38.8814 54.0659C37.9206 54.0695 37.9206 54.0695 36.9404 54.0732C36.3474 54.0771 35.7543 54.081 35.1433 54.0851C33.75 53.9999 33.75 53.9999 33 53.2499C32.822 48.3559 32.822 48.3559 33.75 46.4999ZM36 49.4999C36 49.9949 36 50.4899 36 50.9999C38.97 50.9999 41.94 50.9999 45 50.9999C45 50.5049 45 50.0099 45 49.4999C42.03 49.4999 39.06 49.4999 36 49.4999Z" fill="#333333" fill-opacity="0.05"/>
<path d="M55.5 18C57 19.1718 57 19.1718 57.75 21C57.6562 23.7187 57.6562 23.7187 57 26.25C54.75 27.75 54.75 27.75 52.0781 27.5625C49.5 27 49.5 27 48 25.5C47.5906 20.9965 47.5906 20.9965 48.7969 18.7968C51.1162 17.5249 52.9164 17.677 55.5 18ZM51.75 21C51.5025 21.99 51.255 22.98 51 24C51.99 24.2475 52.98 24.495 54 24.75C54.2475 23.76 54.495 22.77 54.75 21.75C53.76 21.5025 52.77 21.255 51.75 21Z" fill="#333333" fill-opacity="0.05"/>
<path d="M33.75 56.25C36.0938 56.5312 36.0938 56.5312 38.25 57C38.7188 58.7344 38.7188 58.7344 39 60.75C38.2575 61.8637 38.2575 61.8637 37.5 63C35.625 63.2344 35.625 63.2344 33.75 63C32.25 61.5 32.25 61.5 32.0625 59.625C32.25 57.75 32.25 57.75 33.75 56.25Z" fill="#333333" fill-opacity="0.05"/>
</svg>
