<svg width="115" height="115" viewBox="0 0 115 115" fill="none" xmlns="http://www.w3.org/2000/svg">
<g clip-path="url(#clip0_118_5799)">
<path d="M37.5487 2.10495C37.7085 2.10335 37.8682 2.10176 38.0328 2.10012C38.5669 2.09617 39.1007 2.10023 39.6348 2.10429C40.0182 2.10314 40.4016 2.1015 40.7849 2.09942C41.8254 2.09526 42.8657 2.09817 43.9062 2.10259C44.995 2.10627 46.0838 2.10429 47.1727 2.10314C49.0012 2.10213 50.8297 2.10569 52.6582 2.11197C54.7722 2.11917 56.8861 2.11917 59.0001 2.11529C61.0337 2.11173 63.0673 2.11324 65.1009 2.11707C65.9664 2.11862 66.8318 2.11838 67.6973 2.11673C68.7165 2.11501 69.7355 2.11773 70.7547 2.12388C71.1287 2.12543 71.5027 2.12545 71.8768 2.12383C72.3874 2.12188 72.8977 2.12546 73.4083 2.13045C73.8369 2.13139 73.8369 2.13139 74.2741 2.13236C75.1489 2.26577 75.5214 2.52627 76.1426 3.14448C76.3907 3.75636 76.3947 4.33427 76.3927 4.99027C76.3927 5.17457 76.3926 5.35888 76.3926 5.54876C76.3915 5.74556 76.3903 5.94236 76.3891 6.14512C76.3886 6.44982 76.3886 6.44982 76.3882 6.76067C76.3869 7.40831 76.3841 8.05593 76.3812 8.70356C76.3801 9.14313 76.3791 9.5827 76.3782 10.0223C76.3757 11.0988 76.3718 12.1754 76.3672 13.2519C76.6136 13.2441 76.86 13.2363 77.1138 13.2282C77.4405 13.2219 77.7672 13.2158 78.0939 13.2098C78.3369 13.2013 78.3369 13.2013 78.5848 13.1927C79.6125 13.1786 80.2925 13.2488 81.084 13.9257C81.4647 14.7075 81.5891 15.3335 81.5872 16.1985C81.5882 16.5382 81.5882 16.5382 81.5891 16.8847C81.5875 17.1306 81.5859 17.3765 81.5842 17.6299C81.5843 17.8907 81.5843 18.1516 81.5844 18.4204C81.5841 19.282 81.5806 20.1437 81.5771 21.0053C81.5762 21.603 81.5756 22.2006 81.5751 22.7983C81.5738 24.2102 81.5701 25.6221 81.5656 27.0341C81.5605 28.6419 81.5581 30.2498 81.5558 31.8576C81.5511 35.1642 81.5432 38.4707 81.5332 41.7773C81.7068 41.8459 81.8804 41.9144 82.0593 41.9851C82.6657 42.2304 83.2443 42.5063 83.8294 42.7986C84.0584 42.9127 84.2874 43.0268 84.5233 43.1444C84.8924 43.3293 84.8924 43.3293 85.2691 43.518C85.5266 43.6467 85.7841 43.7753 86.0494 43.9078C86.5959 44.181 87.1423 44.4544 87.6886 44.728C88.3751 45.0719 89.062 45.415 89.7491 45.7579C92.3608 47.0617 94.9659 48.3745 97.5438 49.7441C98.775 50.3964 100.017 51.0247 101.265 51.6426C101.447 51.7324 101.629 51.8223 101.816 51.9149C102.551 52.2786 103.287 52.6416 104.023 53.003C109.208 55.5504 109.208 55.5504 110.059 56.8261C110.101 57.5194 110.117 58.1922 110.113 58.8854C110.113 59.2055 110.113 59.2055 110.114 59.532C110.115 60.25 110.112 60.9681 110.11 61.6861C110.109 62.1996 110.11 62.7131 110.11 63.2266C110.11 64.6233 110.107 66.0201 110.104 67.4168C110.101 68.8755 110.101 70.3342 110.101 71.7929C110.099 74.2421 110.096 76.6913 110.092 79.1405C110.088 81.6633 110.085 84.1861 110.083 86.709C110.083 86.8645 110.083 87.0199 110.083 87.1801C110.082 87.9601 110.082 88.74 110.081 89.52C110.077 95.9918 110.069 102.464 110.059 108.936C110.321 108.925 110.584 108.915 110.854 108.904C111.202 108.895 111.55 108.887 111.898 108.879C112.07 108.872 112.243 108.864 112.421 108.857C113.324 108.841 113.767 108.867 114.553 109.357C115.06 109.898 115.153 110.113 115.14 110.845C115.143 111.014 115.146 111.183 115.149 111.357C114.922 112.114 114.538 112.333 113.877 112.754C113.236 112.84 112.684 112.875 112.044 112.868C111.86 112.869 111.675 112.87 111.485 112.872C110.864 112.875 110.243 112.872 109.622 112.869C109.174 112.871 108.725 112.872 108.277 112.874C107.042 112.878 105.807 112.877 104.572 112.875C103.241 112.873 101.911 112.877 100.58 112.88C98.1227 112.884 95.6656 112.885 93.2085 112.883C90.9388 112.881 88.669 112.881 86.3992 112.883C86.0949 112.883 85.7906 112.883 85.4864 112.883C85.0278 112.884 84.5694 112.884 84.1108 112.884C79.8474 112.887 75.5839 112.888 71.3205 112.886C71.0793 112.886 71.0793 112.886 70.8333 112.886C69.5277 112.885 68.2221 112.884 66.9166 112.883C61.8228 112.88 56.7291 112.882 51.6354 112.888C45.9145 112.895 40.1937 112.898 34.4728 112.896C33.8631 112.896 33.2535 112.896 32.6438 112.895C32.4186 112.895 32.4186 112.895 32.1889 112.895C29.9203 112.894 27.6518 112.897 25.3833 112.9C22.8042 112.904 20.2252 112.904 17.6462 112.899C16.3295 112.896 15.013 112.896 13.6963 112.9C12.4921 112.904 11.2879 112.902 10.0837 112.897C9.64704 112.896 9.21038 112.896 8.77373 112.899C8.18195 112.903 7.5906 112.9 6.99885 112.895C6.82771 112.897 6.65657 112.9 6.48025 112.903C5.59926 112.887 5.20071 112.781 4.49696 112.234C4.04297 111.631 4.04297 111.631 3.93066 110.831C4.04592 110.038 4.14671 109.709 4.7168 109.16C6.13913 108.686 7.70972 108.936 9.20898 108.936C9.20898 102.561 9.20898 96.1867 9.20898 89.6191C8.24541 90.2862 7.28184 90.9533 6.28906 91.6406C5.27832 91.8371 5.27832 91.8371 4.49219 91.6406C3.39333 90.6952 2.58869 89.5089 1.74072 88.3416C1.52618 88.0496 1.52618 88.0496 1.3073 87.7516C-0.0102854 85.9504 -0.0102854 85.9504 -0.117569 84.4908C0.214507 83.1154 2.03867 82.1723 3.11646 81.3928C3.49696 81.1155 3.87745 80.8383 4.25793 80.561C4.44746 80.4233 4.637 80.2857 4.83228 80.1438C5.35863 79.7596 5.88191 79.3717 6.404 78.9817C6.55821 78.867 6.71243 78.7522 6.87131 78.634C7.16103 78.4182 7.45022 78.2017 7.73882 77.9845C8.70928 77.2656 8.70928 77.2656 9.20898 77.2656C9.20816 77.0546 9.20733 76.8436 9.20648 76.6262C9.18654 71.4956 9.17177 66.365 9.16244 61.2344C9.1578 58.7533 9.15148 56.2722 9.14121 53.7912C9.13226 51.629 9.12646 49.4669 9.12445 47.3048C9.12328 46.1596 9.12052 45.0144 9.11399 43.8693C9.10791 42.7919 9.10601 41.7146 9.10736 40.6372C9.10712 40.2413 9.10532 39.8454 9.10189 39.4496C9.09743 38.9098 9.09849 38.3703 9.10094 37.8306C9.09833 37.6732 9.09571 37.5159 9.09301 37.3538C9.10216 36.6124 9.16717 36.2188 9.61184 35.6153C10.3638 35.0817 11.1159 35.1457 12.0032 35.1616C12.2893 35.1614 12.2893 35.1614 12.5812 35.1612C13.2108 35.1619 13.8402 35.1688 14.4698 35.1759C14.9066 35.1776 15.3434 35.1788 15.7802 35.1797C16.9294 35.1832 18.0785 35.192 19.2276 35.2019C20.4004 35.2111 21.5732 35.2152 22.7461 35.2198C25.0469 35.2294 27.3477 35.2447 29.6484 35.2636C29.6464 35.0039 29.6444 34.7442 29.6424 34.4767C29.6242 32.031 29.6107 29.5853 29.6019 27.1395C29.5972 25.8821 29.5908 24.6247 29.5807 23.3673C29.5709 22.1542 29.5655 20.9411 29.5632 19.7279C29.5615 19.2648 29.5583 18.8016 29.5534 18.3384C29.5469 17.6904 29.546 17.0425 29.5464 16.3945C29.5432 16.2024 29.54 16.0103 29.5367 15.8124C29.5457 14.5098 29.5457 14.5098 30.076 13.8135C31.0087 13.146 31.8227 13.2261 32.9333 13.2379C33.1134 13.2389 33.2935 13.2399 33.4791 13.2409C33.9242 13.2436 34.3693 13.2476 34.8145 13.2519C34.8086 12.9584 34.8027 12.6649 34.7966 12.3625C34.7763 11.2721 34.7634 10.1817 34.7528 9.0912C34.7471 8.61951 34.7395 8.14783 34.7297 7.67621C34.7161 6.99763 34.7097 6.31932 34.7048 5.64063C34.699 5.43025 34.6932 5.21987 34.6872 5.00312C34.6871 4.80534 34.687 4.60757 34.687 4.4038C34.6845 4.23072 34.682 4.05765 34.6794 3.87933C35.0691 2.40685 36.1763 2.10558 37.5487 2.10495ZM38.6328 6.0644C38.6328 8.43628 38.6328 10.8082 38.6328 13.2519C49.8251 13.2519 61.0174 13.2519 72.5488 13.2519C72.5488 10.88 72.5488 8.50815 72.5488 6.0644C61.3565 6.0644 50.1643 6.0644 38.6328 6.0644ZM33.4668 17.0703C33.3752 25.0794 33.3752 25.0794 33.3133 33.0886C33.2946 36.355 33.2727 39.6211 33.2296 42.8873C33.1982 45.2661 33.1779 47.6447 33.1709 50.0237C33.1668 51.2832 33.1572 52.5421 33.1343 53.8013C33.1129 54.9877 33.1064 56.1732 33.1111 57.3598C33.1103 57.7942 33.104 58.2287 33.0919 58.663C32.9644 60.8667 32.9644 60.8667 33.7758 62.8339C34.6257 63.6253 35.5893 64.1495 36.6113 64.6875C36.9631 64.93 37.3117 65.1775 37.6528 65.435C37.8786 65.5978 37.8786 65.5978 38.109 65.7638C38.2587 65.8719 38.4084 65.9799 38.5626 66.0913C38.7278 66.2102 38.893 66.3291 39.0632 66.4516C39.9943 67.1236 40.9187 67.8033 41.837 68.4927C42.0311 68.6378 42.2252 68.7829 42.4251 68.9324C42.8013 69.2143 43.1766 69.4975 43.5507 69.7822C43.7203 69.9091 43.8899 70.036 44.0647 70.1667C44.2142 70.2798 44.3637 70.393 44.5178 70.5096C44.9397 70.8097 44.9397 70.8097 45.5957 70.7519C45.9923 70.5338 45.9923 70.5338 46.3959 70.2237C46.6332 70.0504 46.6332 70.0504 46.8754 69.8736C47.046 69.7465 47.2167 69.6194 47.3926 69.4885C47.5714 69.3573 47.7502 69.2262 47.9344 69.091C48.5036 68.6729 49.0712 68.2526 49.6387 67.832C49.9966 67.5681 50.3545 67.3043 50.7126 67.0406C51.2422 66.6504 51.7718 66.2602 52.301 65.8694C53.585 64.9218 54.8737 63.9807 56.1664 63.045C56.4252 62.8572 56.4252 62.8572 56.6893 62.6655C56.8483 62.5507 57.0072 62.4359 57.171 62.3176C57.3808 62.1659 57.3808 62.1659 57.5948 62.0112C58.3437 61.4963 58.8374 61.4393 59.7461 61.5429C60.3707 61.8608 60.9143 62.2728 61.4728 62.694C61.638 62.8147 61.8032 62.9353 61.9734 63.0595C62.506 63.4494 63.0352 63.8437 63.5645 64.2382C63.9164 64.4973 64.2685 64.7562 64.6208 65.0147C65.336 65.5401 66.0501 66.067 66.7634 66.5949C68.287 67.7207 69.8249 68.8267 71.3624 69.9334C72.4252 70.699 73.4864 71.4669 74.548 72.2343C74.8569 72.4575 75.166 72.6805 75.4752 72.9032C75.7759 73.1201 76.076 73.3377 76.3756 73.556C76.9902 74.0976 76.9902 74.0976 77.7148 74.3457C77.7148 55.4448 77.7148 36.5439 77.7148 17.0703C63.113 17.0703 48.5111 17.0703 33.4668 17.0703ZM13.0273 39.082C13.0273 50.719 13.0273 62.356 13.0273 74.3457C14.2908 73.5034 15.5165 72.6666 16.7194 71.7486C18.0141 70.7693 19.3187 69.8055 20.636 68.8568C20.8035 68.7361 20.9711 68.6154 21.1437 68.491C21.8323 67.9954 22.5215 67.5004 23.211 67.0059C23.3847 66.8813 23.5585 66.7566 23.7375 66.6282C23.9102 66.5045 24.0828 66.3809 24.2607 66.2535C24.6027 66.0066 24.9433 65.7579 25.2824 65.507C26.1676 64.853 27.046 64.2514 28.0172 63.7316C29.2028 62.942 29.2028 62.942 29.7449 61.6968C29.7672 61.0917 29.7539 60.4991 29.7239 59.8943C29.7184 59.6856 29.713 59.4768 29.7074 59.2618C29.6932 58.7489 29.6734 58.237 29.6484 57.7246C29.5097 57.7222 29.371 57.7199 29.2281 57.7175C27.7853 57.6933 26.3424 57.6675 24.8996 57.6409C24.3611 57.6312 23.8225 57.6218 23.2839 57.6129C22.51 57.5999 21.7362 57.5856 20.9624 57.571C20.7214 57.5673 20.4803 57.5635 20.232 57.5596C20.0072 57.5552 19.7825 57.5507 19.5509 57.5461C19.3534 57.5426 19.1559 57.5391 18.9524 57.5355C18.4473 57.5019 18.0047 57.4156 17.5195 57.2753C17.3018 56.5428 17.264 55.8767 17.2587 55.1139C17.2566 54.8606 17.2544 54.6072 17.2522 54.3462C17.2512 54.0736 17.2503 53.801 17.2493 53.5202C17.248 53.2394 17.2467 52.9586 17.2454 52.6693C17.2433 52.0757 17.2417 51.4822 17.241 50.8886C17.2397 50.1287 17.2343 49.369 17.2279 48.6092C17.2228 47.8831 17.2223 47.157 17.2212 46.4309C17.2184 46.1583 17.2157 45.8857 17.2128 45.6049C17.2135 45.3515 17.2142 45.0982 17.2149 44.8372C17.214 44.6144 17.2132 44.3917 17.2124 44.1622C17.3091 43.4734 17.4867 43.1711 17.9688 42.6757C18.6182 42.4593 19.0528 42.4172 19.7294 42.405C20.0598 42.3983 20.0598 42.3983 20.3969 42.3914C20.6342 42.3877 20.8715 42.3839 21.1159 42.3801C21.4809 42.3731 21.4809 42.3731 21.8533 42.3659C22.6314 42.3512 23.4095 42.338 24.1876 42.3248C24.7148 42.3151 25.2419 42.3053 25.7691 42.2954C27.0622 42.2713 28.3553 42.2486 29.6484 42.2265C29.6484 41.1888 29.6484 40.1511 29.6484 39.082C24.1635 39.082 18.6785 39.082 13.0273 39.082ZM20.8887 46.0449C20.8887 48.6391 20.8887 51.2333 20.8887 53.9062C23.7794 53.9062 26.6701 53.9062 29.6484 53.9062C29.6484 51.312 29.6484 48.7177 29.6484 46.0449C26.7577 46.0449 23.867 46.0449 20.8887 46.0449ZM81.5332 46.0449C81.4649 50.0767 81.4135 54.1083 81.3819 58.1405C81.3669 60.0129 81.3464 61.885 81.3129 63.7572C81.2837 65.3898 81.265 67.022 81.2585 68.6548C81.2547 69.5189 81.2458 70.3823 81.2245 71.2461C80.925 74.9279 80.925 74.9279 82.1647 78.1751C82.8534 78.7836 83.6081 79.1525 84.4531 79.5117C84.8171 79.7399 85.1782 79.9729 85.5341 80.2136C85.7703 80.3526 86.0066 80.4915 86.25 80.6347C86.301 80.4957 86.3519 80.3568 86.4044 80.2136C86.7953 79.5807 87.121 79.5121 87.8223 79.2871C88.4017 79.23 88.4017 79.23 89.0247 79.2289C89.2593 79.2275 89.494 79.2261 89.7357 79.2246C89.9868 79.2255 90.2378 79.2265 90.4965 79.2274C90.8865 79.2268 90.8865 79.2268 91.2843 79.2261C91.8333 79.2258 92.3824 79.2266 92.9314 79.2285C93.7713 79.2309 94.6111 79.2285 95.4511 79.2256C95.9848 79.2259 96.5186 79.2265 97.0523 79.2274C97.3034 79.2265 97.5545 79.2256 97.8131 79.2246C98.1651 79.2268 98.1651 79.2268 98.5241 79.2289C98.7297 79.2293 98.9353 79.2296 99.1471 79.23C99.7973 79.294 100.268 79.439 100.85 79.7363C101.357 80.4974 101.355 80.756 101.353 81.6476C101.354 82.0276 101.354 82.0276 101.355 82.4154C101.353 82.826 101.353 82.826 101.351 83.2449C101.35 83.526 101.35 83.8071 101.35 84.0967C101.35 84.6917 101.348 85.2866 101.345 85.8815C101.341 86.6431 101.34 87.4046 101.341 88.1662C101.34 88.8935 101.338 89.6208 101.337 90.3482C101.336 90.6215 101.336 90.8948 101.336 91.1764C101.334 91.4304 101.333 91.6845 101.331 91.9463C101.331 92.1697 101.33 92.3931 101.329 92.6233C101.302 93.154 101.225 93.6038 101.074 94.1113C100.342 94.329 99.6756 94.3668 98.9128 94.3721C98.6594 94.3742 98.4061 94.3764 98.1451 94.3786C97.8725 94.3796 97.5999 94.3805 97.319 94.3815C97.0383 94.3828 96.7575 94.3841 96.4682 94.3854C95.8746 94.3875 95.281 94.3891 94.6874 94.3898C93.9276 94.3911 93.1679 94.3965 92.4081 94.4029C91.682 94.4081 90.9559 94.4085 90.2298 94.4096C89.9572 94.4124 89.6846 94.4151 89.4038 94.418C89.1504 94.4173 88.8971 94.4166 88.636 94.4159C88.3019 94.4172 88.3019 94.4172 87.9611 94.4184C87.2761 94.3223 86.9718 94.1355 86.4746 93.6621C86.2886 93.1541 86.2886 93.1541 86.1938 92.6092C86.1603 92.4277 86.1267 92.2461 86.0921 92.0591C86.0701 91.921 86.0481 91.7829 86.0254 91.6406C85.8174 91.6193 85.8174 91.6193 85.6051 91.5976C84.1353 91.3851 83.2653 90.9137 82.143 89.9472C81.8137 89.5948 81.8137 89.5948 81.5332 89.6191C81.5332 95.9935 81.5332 102.368 81.5332 108.936C89.6865 108.936 97.8398 108.936 106.24 108.936C106.24 92.3324 106.24 75.7292 106.24 58.623C103.016 56.9213 103.016 56.9213 99.7783 55.2442C99.5081 55.1056 99.5081 55.1056 99.2324 54.9642C98.6626 54.6721 98.0926 54.3803 97.5226 54.0887C97.3246 53.9873 97.1267 53.8859 96.9228 53.7815C94.1806 52.3772 91.4318 50.9872 88.673 49.616C86.7514 48.6608 84.8427 47.6851 82.9512 46.6716C82.2762 46.2395 82.2762 46.2395 81.5332 46.0449ZM31.4453 65.5859C31.3372 65.6659 31.2291 65.7458 31.1177 65.8282C29.1376 67.2921 27.1549 68.7519 25.1562 70.1904C23.7644 71.1922 22.3801 72.2034 21.001 73.2226C19.4563 74.3641 17.9035 75.4934 16.3447 76.6154C14.9415 77.6268 13.549 78.6524 12.158 79.6806C10.7434 80.7249 9.32024 81.7569 7.89204 82.7825C6.82355 83.5509 5.76679 84.3335 4.7168 85.1269C4.89422 86.0813 5.35615 86.4946 6.06445 87.1484C6.22833 87.0201 6.39221 86.8919 6.56105 86.7597C8.16195 85.5139 9.78983 84.3113 11.4374 83.1281C12.6855 82.2312 13.9253 81.3238 15.1611 80.4101C17.3744 78.775 19.6052 77.1649 21.8387 75.5575C26.0368 72.6087 26.0368 72.6087 30.0985 69.4822C30.8087 69.003 31.5293 69.0352 32.3438 69.1796C32.8923 69.4753 33.2993 69.7375 33.7756 70.1202C34.0502 70.3283 34.3248 70.5362 34.5995 70.744C34.7435 70.8552 34.8875 70.9663 35.0359 71.0808C35.824 71.6817 36.6336 72.2529 37.4396 72.8295C39.0354 73.9805 40.6202 75.1459 42.2026 76.3151C43.403 77.2012 44.6094 78.0785 45.8203 78.9501C47.2121 79.952 48.5964 80.9633 49.9756 81.9824C51.422 83.0504 52.8716 84.1138 54.3274 85.169C54.4943 85.2905 54.6612 85.4119 54.8332 85.5371C55.6286 86.1121 56.4217 86.6613 57.2754 87.1484C57.4639 86.8967 57.6507 86.6438 57.8369 86.3903C57.9411 86.2496 58.0454 86.1089 58.1528 85.9639C58.4385 85.5894 58.4385 85.5894 58.3984 85.1269C58.0847 84.8384 58.0847 84.8384 57.6641 84.5549C57.4235 84.3837 57.4235 84.3837 57.178 84.2092C57.0017 84.0858 56.8253 83.9625 56.6437 83.8354C56.2701 83.5701 55.8966 83.3045 55.5233 83.0387C55.3297 82.9014 55.1361 82.764 54.9366 82.6224C54.0241 81.9701 53.123 81.3025 52.2217 80.6347C50.8427 79.6154 49.4582 78.6043 48.0664 77.6025C46.4937 76.4704 44.9317 75.3245 43.3733 74.1728C42.0089 73.1657 40.636 72.1711 39.2593 71.1809C37.8153 70.1407 36.3832 69.0848 34.9562 68.0215C33.8098 67.1715 32.6397 66.3668 31.4453 65.5859ZM57.0227 66.9757C56.7013 67.2234 56.3796 67.4708 56.0576 67.7179C55.8898 67.8473 55.722 67.9766 55.5491 68.1099C54.6854 68.7677 53.805 69.4021 52.9236 70.036C52.7536 70.1584 52.5837 70.2808 52.4086 70.407C51.193 71.281 49.972 72.1469 48.7402 72.998C49.0866 73.7382 49.359 74.1629 50.0879 74.5703C50.9981 74.487 51.6512 73.9172 52.3621 73.3911C52.4966 73.2941 52.6311 73.1972 52.7697 73.0973C53.5808 72.5111 54.3794 71.9105 55.1732 71.3011C55.3498 71.168 55.5263 71.0349 55.7083 70.8978C56.0542 70.6368 56.3974 70.3724 56.7377 70.1042C57.6411 69.4273 58.3667 68.9584 59.5232 69.0558C60.4295 69.3066 61.109 69.8687 61.8378 70.4431C62.0115 70.5742 62.1852 70.7054 62.3642 70.8405C62.7312 71.1177 63.0969 71.3965 63.4615 71.6769C64.3472 72.3549 65.2481 73.0121 66.1475 73.6718C66.5055 73.9362 66.8634 74.2006 67.2214 74.465C68.2436 75.2182 69.2722 75.9623 70.3027 76.7041C71.6945 77.7059 73.0788 78.7171 74.458 79.7363C76.3342 81.1223 78.2221 82.4915 80.1152 83.8543C81.0472 84.5255 81.978 85.1983 82.9089 85.8709C83.2511 86.1181 83.5933 86.3652 83.9355 86.6123C84.1829 86.791 84.4303 86.9697 84.6777 87.1484C85.3697 86.5256 85.7306 86.0111 86.0254 85.1269C85.7993 84.9688 85.5731 84.8107 85.3402 84.6479C83.3909 83.2808 81.4614 81.8906 79.5479 80.474C78.3438 79.5833 77.1337 78.7018 75.918 77.8271C74.3452 76.6951 72.7833 75.5491 71.2249 74.3974C70.0245 73.5114 68.8183 72.6342 67.6074 71.7626C66.1694 70.7273 64.7381 69.6835 63.3118 68.6322C63.1389 68.5048 62.9661 68.3774 62.788 68.2461C62.5391 68.0624 62.5391 68.0624 62.2852 67.875C62.1245 67.7569 61.9637 67.6388 61.7981 67.5171C61.4704 67.2719 61.1466 67.0215 60.8264 66.7667C60.6697 66.6431 60.5129 66.5195 60.3515 66.3922C60.1439 66.2245 60.1439 66.2245 59.9322 66.0535C58.7437 65.3504 57.9248 66.2621 57.0227 66.9757ZM58.065 73.7806C57.9104 73.8982 57.7558 74.0157 57.5965 74.1368C57.435 74.2613 57.2734 74.3858 57.1069 74.5141C56.0595 75.316 55.0138 76.0989 53.9062 76.8164C54.1973 77.6894 54.7209 77.9636 55.4504 78.4588C55.7352 78.657 56.0198 78.8556 56.3041 79.0546C56.4589 79.1625 56.6137 79.2705 56.7732 79.3817C57.7037 80.0387 58.6191 80.7164 59.5355 81.3928C59.7172 81.5263 59.8988 81.6599 60.086 81.7975C62.8198 83.8134 62.8198 83.8134 62.9889 84.804C62.8405 85.9698 62.2367 86.6683 61.543 87.5976C61.4358 87.7424 61.3286 87.8873 61.2182 88.0365C58.9848 91.0542 58.9848 91.0542 58.623 91.416C57.1389 91.6314 56.4665 91.4151 55.2539 90.5175C54.8796 90.218 54.5052 89.9186 54.1309 89.6191C54.0567 89.6191 53.9826 89.6191 53.9062 89.6191C53.9062 95.9935 53.9062 102.368 53.9062 108.936C61.7631 108.936 69.6199 108.936 77.7148 108.936C77.8029 105.331 77.8909 101.727 77.9816 98.0139C78.0204 96.8816 78.0593 95.7493 78.0993 94.5828C78.1136 93.5557 78.1136 93.5557 78.1222 92.5285C78.1287 92.0757 78.1435 91.6229 78.1654 91.1706C78.3387 88.5313 78.3387 88.5313 77.3082 86.1961C76.3057 85.2648 75.1882 84.5596 74.0035 83.8838C73.0997 83.349 72.268 82.7201 71.4258 82.0947C71.0915 81.8532 70.757 81.6122 70.4221 81.3717C69.1873 80.48 67.9629 79.5742 66.7381 78.6689C65.3235 77.6246 63.9003 76.5926 62.4721 75.567C62.3175 75.4558 62.1629 75.3446 62.0036 75.2301C61.8541 75.1226 61.7046 75.0152 61.5505 74.9045C60.9137 74.4385 60.2903 73.9555 59.6682 73.47C58.9706 73.0052 58.6659 73.3193 58.065 73.7806ZM29.7888 74.3737C29.6186 74.4943 29.4483 74.6149 29.2729 74.7392C27.8257 75.7683 26.395 76.819 24.9677 77.8755C23.7638 78.7663 22.5536 79.6477 21.3379 80.5224C19.9054 81.5541 18.4783 82.5928 17.0563 83.6389C16.8853 83.7644 16.7143 83.8899 16.5382 84.0192C16.2148 84.2576 15.8945 84.5003 15.5782 84.7482C15.0488 85.1269 15.0488 85.1269 14.517 85.3666C13.8174 85.736 13.4747 86.0385 13.0273 86.6992C12.6363 88.3196 12.7932 90.0645 12.8299 91.7169C12.8337 92.2132 12.8366 92.7095 12.8386 93.2058C12.8463 94.5091 12.8661 95.8119 12.8885 97.115C12.9093 98.4459 12.9185 99.7769 12.9286 101.108C12.9503 103.717 12.9858 106.326 13.0273 108.936C16.1404 108.936 19.2535 108.936 22.4609 108.936C22.4719 107.892 22.4829 106.849 22.4943 105.773C22.5022 105.112 22.5103 104.451 22.5188 103.79C22.5324 102.74 22.5455 101.691 22.5557 100.641C22.564 99.7951 22.5744 98.949 22.5863 98.1029C22.5904 97.7802 22.5938 97.4574 22.5965 97.1347C22.6003 96.6824 22.607 96.2303 22.6139 95.7781C22.6169 95.5207 22.6199 95.2633 22.623 94.9982C22.6841 94.3516 22.7776 93.9744 23.1348 93.4375C23.7814 93.1141 24.3414 93.1807 25.064 93.1766C25.216 93.1755 25.368 93.1744 25.5245 93.1733C26.0282 93.17 26.5319 93.1685 27.0356 93.1672C27.3853 93.1659 27.735 93.1646 28.0847 93.1633C28.8185 93.161 29.5522 93.1597 30.286 93.1589C31.2261 93.1576 32.1661 93.1523 33.1062 93.1459C33.8288 93.1417 34.5513 93.1405 35.2739 93.1402C35.6205 93.1395 35.9671 93.1377 36.3136 93.1347C36.7986 93.1309 37.2835 93.1313 37.7685 93.1328C38.0444 93.132 38.3204 93.1311 38.6047 93.1303C39.3798 93.2214 39.6985 93.2926 40.2051 93.8867C40.3216 94.539 40.3216 94.539 40.3277 95.3446C40.3312 95.5649 40.3312 95.5649 40.3347 95.7897C40.3413 96.2746 40.3417 96.7594 40.3419 97.2444C40.3453 97.5808 40.3491 97.9173 40.3532 98.2537C40.363 99.1388 40.3675 100.024 40.3709 100.909C40.3761 101.971 40.3878 103.033 40.3985 104.096C40.414 105.709 40.421 107.322 40.4297 108.936C43.6169 108.936 46.8041 108.936 50.0879 108.936C50.1991 105.055 50.1991 105.055 50.2743 101.174C50.2971 99.5886 50.3239 98.0043 50.3759 96.4198C50.4177 95.1411 50.4403 93.8632 50.4502 92.5838C50.4572 92.0977 50.4709 91.6117 50.4916 91.126C50.6615 88.5406 50.6615 88.5406 49.7252 86.2172C48.8409 85.3476 47.8455 84.6957 46.7746 84.0786C45.9432 83.5858 45.1701 83.0128 44.3884 82.4456C44.0707 82.2231 43.7529 82.0007 43.4347 81.7788C42.3883 81.0439 41.3591 80.2865 40.3314 79.5257C38.5814 78.2303 36.8211 76.9503 35.054 75.6784C34.483 75.2673 33.9136 74.8542 33.3466 74.4378C33.1222 74.273 32.8978 74.1083 32.6666 73.9386C32.4764 73.7981 32.2862 73.6577 32.0902 73.513C31.2075 72.9031 30.5433 73.8374 29.7888 74.3737ZM89.8438 82.8808C89.992 83.1773 90.1402 83.4738 90.293 83.7793C90.6252 85.1591 90.6252 85.1591 90.1859 85.9446C89.7383 86.9317 89.7687 87.7385 89.8016 88.8049C89.8155 89.4442 89.8294 90.0835 89.8438 90.7421C92.438 90.7421 95.0322 90.7421 97.7051 90.7421C97.7051 88.1479 97.7051 85.5537 97.7051 82.8808C95.1108 82.8808 92.5166 82.8808 89.8438 82.8808ZM26.2793 96.8066C26.2793 100.809 26.2793 104.812 26.2793 108.936C29.6889 108.936 33.0984 108.936 36.6113 108.936C36.6113 104.933 36.6113 100.93 36.6113 96.8066C33.2018 96.8066 29.7922 96.8066 26.2793 96.8066Z" fill="white"/>
<path d="M89.0453 60.5828C89.2844 60.5807 89.5236 60.5785 89.7699 60.5763C90.0259 60.5765 90.2819 60.5767 90.5456 60.5769C90.8106 60.576 91.0756 60.575 91.3486 60.574C91.9081 60.5727 92.4677 60.5726 93.0273 60.5736C93.8836 60.5743 94.7396 60.569 95.5958 60.5633C96.1398 60.5628 96.6838 60.5627 97.2278 60.5629C97.6118 60.5598 97.6118 60.5598 98.0035 60.5566C98.2426 60.558 98.4817 60.5594 98.7281 60.5609C98.9377 60.5607 99.1473 60.5606 99.3632 60.5605C100.077 60.6625 100.494 60.8954 101.074 61.3183C101.581 62.0785 101.58 62.3391 101.582 63.2297C101.583 63.483 101.584 63.7364 101.586 63.9974C101.585 64.2712 101.584 64.5449 101.583 64.827C101.584 65.1081 101.584 65.3891 101.584 65.6788C101.585 66.2737 101.584 66.8686 101.582 67.4636C101.579 68.2251 101.581 68.9866 101.584 69.7482C101.586 70.4756 101.584 71.2029 101.583 71.9302C101.584 72.2035 101.585 72.4768 101.586 72.7584C101.584 73.1395 101.584 73.1395 101.582 73.5283C101.581 73.7518 101.581 73.9752 101.58 74.2053C101.52 74.828 101.431 75.1811 101.074 75.6933C100.372 76.1808 99.7569 76.2013 98.9163 76.2078C98.6637 76.2107 98.4111 76.2135 98.1508 76.2165C97.8789 76.217 97.607 76.2175 97.3269 76.218C96.9066 76.2203 96.9066 76.2203 96.4777 76.2225C95.885 76.2248 95.2924 76.2261 94.6998 76.2258C93.9419 76.2257 93.1843 76.2319 92.4265 76.2396C91.7016 76.2458 90.9767 76.2456 90.2517 76.2461C89.9803 76.2493 89.7089 76.2525 89.4292 76.2559C89.1759 76.2545 88.9225 76.2531 88.6615 76.2517C88.4393 76.2523 88.2171 76.253 87.9881 76.2536C87.1963 76.1106 86.82 75.802 86.25 75.2441C86.0224 74.5613 85.9943 74.0924 85.9892 73.3776C85.987 73.1339 85.9849 72.8903 85.9827 72.6393C85.9817 72.376 85.9807 72.1128 85.9798 71.8416C85.9785 71.5711 85.9772 71.3005 85.9759 71.0217C85.9738 70.4488 85.9723 69.876 85.9714 69.3032C85.9692 68.4267 85.9623 67.5503 85.9552 66.6739C85.9537 66.1176 85.9525 65.5613 85.9517 65.0051C85.9489 64.7428 85.9461 64.4805 85.9433 64.2102C85.944 63.9651 85.9446 63.7201 85.9453 63.4676C85.9445 63.2527 85.9437 63.0377 85.9428 62.8163C86.0441 62.0808 86.2406 61.677 86.6992 61.0937C87.4842 60.6605 88.1579 60.5872 89.0453 60.5828ZM89.8437 64.4629C89.8437 67.0571 89.8437 69.6513 89.8437 72.3242C92.438 72.3242 95.0322 72.3242 97.7051 72.3242C97.7051 69.73 97.7051 67.1357 97.7051 64.4629C95.1108 64.4629 92.5166 64.4629 89.8437 64.4629Z" fill="white"/>
<path d="M41.3978 23.7724C41.6414 23.7703 41.8851 23.7681 42.1361 23.7659C42.5309 23.7645 42.5309 23.7645 42.9337 23.763C43.2043 23.7617 43.4749 23.7604 43.7537 23.7591C44.3265 23.757 44.8994 23.7555 45.4722 23.7547C46.3487 23.7525 47.225 23.7455 48.1015 23.7384C48.6578 23.737 49.214 23.7358 49.7703 23.7349C50.0326 23.7321 50.2949 23.7294 50.5651 23.7265C50.8102 23.7272 51.0553 23.7279 51.3078 23.7286C51.6302 23.7273 51.6302 23.7273 51.9591 23.7261C52.6756 23.8247 53.0989 24.0607 53.6816 24.4824C53.9777 25.0746 53.938 25.5218 53.9424 26.1849C53.9446 26.4473 53.9468 26.7097 53.949 26.98C53.9499 27.2647 53.9509 27.5494 53.9519 27.8428C53.9531 28.1342 53.9544 28.4256 53.9557 28.7258C53.9581 29.3432 53.9594 29.9606 53.9602 30.578C53.9614 31.3686 53.9668 32.1591 53.9732 32.9496C53.9784 33.704 53.9789 34.4584 53.9799 35.2128C53.9827 35.4966 53.9855 35.7805 53.9883 36.0729C53.9877 36.3367 53.987 36.6005 53.9863 36.8723C53.9875 37.2204 53.9875 37.2204 53.9888 37.5755C53.8935 38.2772 53.7251 38.5798 53.2324 39.0821C52.5439 39.3116 52.0666 39.3378 51.3453 39.3429C50.9731 39.3461 50.9731 39.3461 50.5933 39.3494C50.3252 39.3503 50.0571 39.3513 49.7808 39.3523C49.3675 39.3542 49.3675 39.3542 48.9457 39.3562C48.3623 39.3583 47.7789 39.3598 47.1955 39.3606C46.3027 39.3628 45.4101 39.3698 44.5174 39.3769C43.9509 39.3783 43.3844 39.3795 42.8179 39.3804C42.5507 39.3831 42.2835 39.3859 42.0082 39.3888C41.6338 39.3878 41.6338 39.3878 41.2519 39.3867C41.033 39.3875 40.8141 39.3884 40.5885 39.3892C39.8668 39.2912 39.4437 39.0582 38.8574 38.6328C38.5616 38.0413 38.5994 37.5929 38.5931 36.9304C38.5887 36.5368 38.5887 36.5368 38.5843 36.1353C38.5827 35.8506 38.581 35.5658 38.5793 35.2725C38.5775 34.9811 38.5757 34.6897 38.5738 34.3895C38.5704 33.7721 38.5682 33.1547 38.5665 32.5372C38.564 31.7467 38.5563 30.9562 38.5474 30.1657C38.5401 29.4113 38.5391 28.6569 38.5372 27.9025C38.5313 27.4767 38.5313 27.4767 38.5253 27.0424C38.5259 26.7786 38.5266 26.5148 38.5272 26.243C38.5259 26.0109 38.5246 25.7789 38.5233 25.5398C38.662 24.7695 38.9234 24.5114 39.5312 24.0332C40.2141 23.8056 40.683 23.7775 41.3978 23.7724ZM42.4512 27.627C42.4512 30.2212 42.4512 32.8155 42.4512 35.4883C44.9713 35.4883 47.4914 35.4883 50.0879 35.4883C50.0879 32.8941 50.0879 30.2998 50.0879 27.627C47.5678 27.627 45.0477 27.627 42.4512 27.627Z" fill="white"/>
<path d="M41.3736 42.1904C41.612 42.1883 41.8504 42.1861 42.0961 42.1839C42.3537 42.1829 42.6113 42.182 42.8767 42.181C43.2743 42.1791 43.2743 42.1791 43.6799 42.1771C44.2412 42.175 44.8026 42.1735 45.3639 42.1727C46.2216 42.1705 47.0793 42.1635 47.937 42.1564C48.4823 42.155 49.0276 42.1538 49.5729 42.1529C49.8291 42.1502 50.0853 42.1474 50.3493 42.1445C52.6098 42.1509 52.6098 42.1509 53.6816 42.9005C53.9777 43.4926 53.938 43.9398 53.9424 44.6029C53.9446 44.8653 53.9468 45.1277 53.949 45.398C53.9499 45.6827 53.9509 45.9675 53.9519 46.2608C53.9531 46.5522 53.9544 46.8436 53.9557 47.1438C53.9581 47.7612 53.9594 48.3786 53.9602 48.9961C53.9614 49.7866 53.9668 50.5771 53.9732 51.3676C53.9784 52.122 53.9789 52.8764 53.9799 53.6308C53.9827 53.9146 53.9855 54.1985 53.9883 54.4909C53.9877 54.7547 53.987 55.0185 53.9863 55.2903C53.9875 55.6384 53.9875 55.6384 53.9888 55.9935C53.8935 56.6953 53.7251 56.9978 53.2324 57.5001C52.5439 57.7296 52.0666 57.7558 51.3453 57.7609C50.9731 57.7641 50.9731 57.7641 50.5933 57.7674C50.3252 57.7684 50.0571 57.7693 49.7808 57.7703C49.3675 57.7722 49.3675 57.7722 48.9457 57.7742C48.3623 57.7763 47.7789 57.7778 47.1955 57.7786C46.3027 57.7808 45.4101 57.7878 44.5174 57.7949C43.9509 57.7963 43.3844 57.7975 42.8179 57.7984C42.5507 57.8012 42.2835 57.8039 42.0082 57.8068C41.6338 57.8058 41.6338 57.8058 41.2519 57.8047C41.033 57.8056 40.8141 57.8064 40.5885 57.8072C39.8668 57.7092 39.4437 57.4763 38.8574 57.0509C38.5616 56.4593 38.5994 56.0109 38.5931 55.3484C38.5887 54.9548 38.5887 54.9548 38.5843 54.5533C38.5827 54.2686 38.581 53.9838 38.5793 53.6905C38.5775 53.3991 38.5757 53.1077 38.5738 52.8075C38.5704 52.1901 38.5682 51.5727 38.5665 50.9553C38.564 50.1647 38.5563 49.3742 38.5474 48.5837C38.5401 47.8293 38.5391 47.0749 38.5372 46.3205C38.5313 45.8948 38.5313 45.8948 38.5253 45.4604C38.5259 45.1966 38.5266 44.9328 38.5272 44.661C38.5259 44.429 38.5246 44.1969 38.5233 43.9578C38.662 43.1875 38.9234 42.9294 39.5312 42.4512C40.2074 42.2259 40.6665 42.1956 41.3736 42.1904ZM42.4512 46.045C42.4512 48.6392 42.4512 51.2335 42.4512 53.9063C44.9713 53.9063 47.4914 53.9063 50.0879 53.9063C50.0879 51.3121 50.0879 48.7178 50.0879 46.045C47.5678 46.045 45.0477 46.045 42.4512 46.045Z" fill="white"/>
<path d="M59.8157 23.7724C60.0594 23.7703 60.303 23.7681 60.5541 23.7659C60.9489 23.7645 60.9489 23.7645 61.3517 23.763C61.6223 23.7617 61.8929 23.7604 62.1716 23.7591C62.7445 23.757 63.3173 23.7555 63.8902 23.7547C64.7667 23.7525 65.643 23.7455 66.5195 23.7384C67.0757 23.737 67.632 23.7358 68.1882 23.7349C68.4506 23.7321 68.7129 23.7294 68.9831 23.7265C69.2282 23.7272 69.4733 23.7279 69.7257 23.7286C70.0481 23.7273 70.0481 23.7273 70.3771 23.7261C71.0936 23.8247 71.5169 24.0607 72.0996 24.4824C72.3986 25.0804 72.3561 25.5395 72.3604 26.2091C72.3626 26.4767 72.3647 26.7443 72.367 27.02C72.3679 27.3103 72.3689 27.6007 72.3698 27.8998C72.3711 28.1997 72.3724 28.4996 72.3737 28.7995C72.3761 29.4285 72.3774 30.0574 72.3782 30.6863C72.3794 31.4925 72.3848 32.2986 72.3912 33.1048C72.3954 33.7243 72.3966 34.3437 72.3969 34.9632C72.3979 35.4051 72.4021 35.8469 72.4063 36.2887C72.4056 36.557 72.405 36.8253 72.4043 37.1018C72.4055 37.4566 72.4055 37.4566 72.4068 37.8186C72.3242 38.4082 72.3242 38.4082 72.0244 38.8128C71.2953 39.3377 70.6265 39.3359 69.7597 39.3393C69.5108 39.3407 69.2619 39.3422 69.0055 39.3436C68.7367 39.3439 68.4679 39.3441 68.1909 39.3444C67.9148 39.3451 67.6387 39.3459 67.3542 39.3467C66.7699 39.3478 66.1855 39.3483 65.6011 39.3483C64.7059 39.3483 63.8108 39.3529 62.9156 39.3571C62.3484 39.3578 61.7812 39.3582 61.214 39.3584C60.8114 39.3608 60.8114 39.3608 60.4007 39.3633C60.1511 39.3626 59.9015 39.3619 59.6444 39.3612C59.425 39.3615 59.2055 39.3619 58.9795 39.3622C58.3605 39.303 58.0097 39.2114 57.5 38.8574C57.0126 38.1553 56.992 37.5402 56.9855 36.6996C56.9827 36.447 56.9798 36.1943 56.9768 35.934C56.9763 35.6622 56.9758 35.3903 56.9753 35.1102C56.9738 34.8299 56.9723 34.5497 56.9708 34.261C56.9685 33.6683 56.9673 33.0757 56.9675 32.483C56.9676 31.7252 56.9615 30.9675 56.9537 30.2098C56.9475 29.4848 56.9478 28.7599 56.9473 28.035C56.944 27.7635 56.9408 27.4921 56.9375 27.2124C56.9389 26.9591 56.9402 26.7058 56.9417 26.4448C56.941 26.2225 56.9404 26.0003 56.9397 25.7713C57.0827 24.9795 57.3913 24.6032 57.9492 24.0332C58.632 23.8056 59.101 23.7775 59.8157 23.7724ZM60.8691 27.627C60.8691 30.2212 60.8691 32.8155 60.8691 35.4883C63.4634 35.4883 66.0576 35.4883 68.7305 35.4883C68.7305 32.8941 68.7305 30.2998 68.7305 27.627C66.1362 27.627 63.542 27.627 60.8691 27.627Z" fill="white"/>
<path d="M59.7916 42.1904C60.03 42.1883 60.2684 42.1861 60.5141 42.1839C60.7717 42.1829 61.0293 42.182 61.2947 42.181C61.6923 42.1791 61.6923 42.1791 62.0979 42.1771C62.6592 42.175 63.2206 42.1735 63.7819 42.1727C64.6396 42.1705 65.4972 42.1635 66.355 42.1564C66.9003 42.155 67.4455 42.1538 67.9908 42.1529C68.2471 42.1502 68.5033 42.1474 68.7673 42.1445C71.0278 42.1509 71.0278 42.1509 72.0996 42.9005C72.3986 43.4984 72.3561 43.9575 72.3604 44.6271C72.3626 44.8947 72.3647 45.1623 72.367 45.438C72.3679 45.7284 72.3689 46.0187 72.3698 46.3179C72.3711 46.6178 72.3724 46.9176 72.3737 47.2175C72.3761 47.8465 72.3774 48.4754 72.3782 49.1044C72.3794 49.9105 72.3848 50.7166 72.3912 51.5228C72.3954 52.1423 72.3966 52.7618 72.3969 53.3813C72.3979 53.8231 72.4021 54.2649 72.4063 54.7067C72.4056 54.975 72.405 55.2433 72.4043 55.5198C72.4055 55.8746 72.4055 55.8746 72.4068 56.2366C72.3242 56.8262 72.3242 56.8262 72.0244 57.2308C71.2953 57.7557 70.6265 57.7539 69.7597 57.7573C69.5108 57.7587 69.2619 57.7602 69.0055 57.7617C68.7367 57.7619 68.4679 57.7622 68.1909 57.7624C67.9148 57.7632 67.6387 57.7639 67.3542 57.7647C66.7699 57.7658 66.1855 57.7663 65.6011 57.7663C64.7059 57.7663 63.8108 57.7709 62.9156 57.7751C62.3484 57.7758 61.7812 57.7762 61.214 57.7764C60.8114 57.7789 60.8114 57.7789 60.4007 57.7813C60.1511 57.7806 59.9015 57.78 59.6444 57.7792C59.425 57.7796 59.2055 57.7799 58.9795 57.7802C58.3605 57.7211 58.0097 57.6294 57.5 57.2755C57.0126 56.5733 56.992 55.9582 56.9855 55.1176C56.9827 54.865 56.9798 54.6123 56.9768 54.3521C56.9763 54.0802 56.9758 53.8083 56.9753 53.5282C56.9738 53.2479 56.9723 52.9677 56.9708 52.679C56.9685 52.0863 56.9673 51.4937 56.9675 50.901C56.9676 50.1432 56.9615 49.3856 56.9537 48.6278C56.9475 47.9029 56.9478 47.1779 56.9473 46.453C56.944 46.1815 56.9408 45.9101 56.9375 45.6305C56.9389 45.3771 56.9402 45.1238 56.9417 44.8628C56.941 44.6405 56.9404 44.4183 56.9397 44.1893C57.0827 43.3976 57.3913 43.0212 57.9492 42.4512C58.6254 42.2259 59.0845 42.1956 59.7916 42.1904ZM60.8691 46.045C60.8691 48.6392 60.8691 51.2335 60.8691 53.9063C63.4634 53.9063 66.0576 53.9063 68.7305 53.9063C68.7305 51.3121 68.7305 48.7178 68.7305 46.045C66.1362 46.045 63.542 46.045 60.8691 46.045Z" fill="white"/>
<path d="M33.8739 76.9287C35.1125 77.5615 36.0284 78.5727 36.6491 79.81C37.1046 81.273 37.1212 83.1538 36.485 84.5654C35.6372 85.9595 34.3466 86.9069 32.793 87.373C31.1405 87.5764 29.7004 87.4147 28.3008 86.4746C26.8725 85.2186 26.1497 83.8787 25.9705 81.9964C26.0361 80.4808 26.5301 79.0066 27.627 77.9394C29.5359 76.5792 31.5947 76.0382 33.8739 76.9287ZM29.873 81.5332C29.8569 82.3406 29.9377 82.7094 30.4907 83.302C31.1078 83.6105 31.4381 83.6738 32.1191 83.5547C32.6665 83.2132 32.6665 83.2132 33.0176 82.6562C33.1564 81.8235 33.1303 81.4672 32.6386 80.7751C32.1456 80.3801 32.1456 80.3801 31.5717 80.2838C30.7187 80.471 30.3858 80.8394 29.873 81.5332Z" fill="white"/>
</g>
<defs>
<clipPath id="clip0_118_5799">
<rect width="115" height="115" fill="white"/>
</clipPath>
</defs>
</svg>
