<svg width="133" height="165" viewBox="0 0 133 165" fill="none" xmlns="http://www.w3.org/2000/svg">
<g clip-path="url(#clip0_118_5782)">
<path d="M14.6867 35.8988C14.8794 35.7849 15.072 35.6711 15.2706 35.5539C15.9157 35.175 16.5659 34.8062 17.2166 34.4371C17.6808 34.1672 18.1447 33.8967 18.6083 33.6257C19.8675 32.892 21.1314 32.167 22.3965 31.4437C23.7199 30.6856 25.0392 29.9207 26.3591 29.1568C28.5764 27.875 30.7968 26.5988 33.0191 25.3259C35.5884 23.8542 38.1525 22.3738 40.7141 20.8886C43.1783 19.4601 45.6461 18.0378 48.1155 16.6183C49.1663 16.014 50.2159 15.4077 51.2645 14.7996C52.4996 14.0838 53.7376 13.3734 54.9781 12.6671C55.4329 12.4071 55.8866 12.1451 56.3392 11.8812C56.9572 11.5213 57.5787 11.1682 58.2015 10.8167C58.722 10.5177 58.722 10.5177 59.2531 10.2127C60.4076 9.76191 61.0419 9.81701 62.2283 10.1319C62.9577 10.7003 63.3673 11.3985 63.8243 12.1956C63.9533 12.4192 64.0824 12.6428 64.2153 12.8731C64.3517 13.1126 64.4882 13.3521 64.6287 13.5989C64.8415 13.9689 64.8415 13.9689 65.0586 14.3463C65.5106 15.1327 65.9608 15.9202 66.4108 16.7078C66.7173 17.2418 67.0239 17.7757 67.3306 18.3095C68.0815 19.6171 68.8308 20.9256 69.5791 22.2347C69.8725 22.0526 70.1659 21.8706 70.4682 21.683C70.86 21.4466 71.2519 21.2104 71.644 20.9744C71.9328 20.7939 71.9328 20.7939 72.2275 20.6098C73.4642 19.873 74.3382 19.4819 75.7723 19.7488C76.7816 20.4304 77.3709 21.1027 77.9744 22.1532C78.2134 22.5646 78.2134 22.5646 78.4573 22.9842C78.6275 23.2836 78.7978 23.583 78.9732 23.8915C79.1559 24.2079 79.3387 24.5242 79.527 24.8502C80.13 25.8956 80.7292 26.9432 81.3284 27.9908C81.7459 28.7164 82.1636 29.4418 82.5817 30.167C83.5688 31.8806 84.5531 33.5959 85.5364 35.3117C86.6563 37.2655 87.7793 39.2175 88.9026 41.1693C91.2125 45.1834 93.5186 49.1997 95.8221 53.2175C96.0807 53.1791 96.3393 53.1407 96.6057 53.1011C97.5131 52.974 98.4081 52.9035 99.3225 52.8482C99.6802 52.8263 100.038 52.8044 100.406 52.7818C100.984 52.7476 100.984 52.7476 101.573 52.7127C101.975 52.6884 102.378 52.6641 102.792 52.6391C103.646 52.5876 104.501 52.5366 105.355 52.486C106.428 52.4224 107.502 52.3575 108.575 52.2922C112.656 52.0446 116.736 51.8127 120.822 51.6687C122.772 51.5976 124.718 51.4902 126.666 51.3651C126.949 51.347 127.232 51.3289 127.524 51.3103C128.67 51.2363 129.817 51.1615 130.964 51.0841C139.037 50.5429 139.037 50.5429 140.962 51.4947C141.499 52.3057 141.989 53.1107 142.469 53.9548C142.694 54.3426 142.694 54.3426 142.924 54.7383C143.427 55.6087 143.927 56.4814 144.427 57.3541C144.786 57.977 145.146 58.5998 145.506 59.2225C146.484 60.9166 147.459 62.6127 148.434 64.3091C149.452 66.0805 150.473 67.85 151.494 69.6197C153.208 72.5914 154.919 75.5642 156.63 78.5379C158.392 81.6009 160.155 84.6633 161.919 87.7247C162.028 87.9134 162.136 88.1021 162.248 88.2965C162.794 89.2429 163.34 90.1894 163.885 91.1359C168.412 98.9893 172.934 106.845 177.455 114.702C177.766 114.506 178.077 114.309 178.398 114.107C178.814 113.853 179.23 113.6 179.646 113.346C179.85 113.216 180.054 113.086 180.265 112.952C181.35 112.301 181.904 112.022 183.201 112.066C184.195 112.367 184.459 112.564 184.956 113.459C185.078 113.662 185.2 113.865 185.325 114.075C185.581 115.152 185.267 115.686 184.76 116.66C184.044 117.213 183.398 117.643 182.617 118.081C182.394 118.212 182.171 118.343 181.941 118.478C181.191 118.917 180.436 119.348 179.68 119.78C179.137 120.095 178.594 120.411 178.051 120.728C176.557 121.598 175.058 122.461 173.558 123.322C171.943 124.253 170.331 125.189 168.719 126.124C165.742 127.851 162.762 129.572 159.78 131.291C157.026 132.878 154.273 134.468 151.521 136.059C151.152 136.273 150.783 136.486 150.414 136.699C149.858 137.021 149.302 137.342 148.746 137.664C143.577 140.653 138.406 143.64 133.233 146.623C132.94 146.792 132.94 146.792 132.641 146.964C131.057 147.877 129.473 148.79 127.889 149.703C121.708 153.267 115.531 156.836 109.356 160.411C102.422 164.426 95.4852 168.437 88.5443 172.44C87.8046 172.867 87.0649 173.294 86.3252 173.72C86.052 173.878 86.052 173.878 85.7733 174.039C83.0211 175.626 80.2708 177.218 77.5216 178.811C74.396 180.621 71.2678 182.428 68.1358 184.227C66.537 185.146 64.9396 186.068 63.3455 186.995C61.8874 187.843 60.4258 188.684 58.9612 189.521C58.4308 189.825 57.9017 190.132 57.374 190.441C56.6587 190.86 55.9392 191.27 55.2179 191.679C55.0122 191.802 54.8065 191.925 54.5945 192.052C53.5152 192.65 52.9571 192.8 51.7202 192.629C50.7474 192.216 50.7474 192.216 50.0508 191.324C49.6357 190.282 49.5275 189.812 49.8345 188.747C51.2277 187.176 53.3076 186.379 55.1261 185.329C50.662 177.597 46.198 169.865 41.5986 161.898C40.897 163.382 40.1953 164.866 39.4725 166.395C38.3841 167.341 38.3841 167.341 37.2929 167.654C35.2979 167.276 33.4911 166.401 31.6451 165.579C31.1803 165.375 31.1803 165.375 30.7062 165.167C27.8466 163.905 27.8466 163.905 26.6943 162.209C26.1339 160.308 27.686 157.887 28.4475 156.187C28.7149 155.584 28.9822 154.981 29.2496 154.378C29.3831 154.079 29.5165 153.779 29.6541 153.47C30.0235 152.635 30.3865 151.798 30.7467 150.96C30.8534 150.713 30.9601 150.465 31.07 150.211C31.2703 149.746 31.4695 149.281 31.6674 148.815C32.3411 147.264 32.3411 147.264 32.9473 146.914C32.7985 146.658 32.6497 146.403 32.4964 146.14C28.8792 139.931 25.2683 133.718 21.664 127.501C19.9208 124.495 18.1756 121.49 16.4256 118.487C14.9006 115.871 13.3794 113.252 11.8628 110.631C11.0593 109.243 10.254 107.856 9.44413 106.471C8.68224 105.169 7.92548 103.863 7.1726 102.555C6.89507 102.075 6.61566 101.596 6.33427 101.119C5.95086 100.467 5.57434 99.812 5.19931 99.1555C5.08597 98.9665 4.97262 98.7775 4.85584 98.5828C4.34772 97.6771 4.15092 97.1541 4.26766 96.1107C4.80605 94.9368 5.76316 94.4877 6.85063 93.8857C7.19751 93.6851 7.19751 93.6851 7.5514 93.4804C8.31556 93.0403 9.08387 92.608 9.85247 92.1756C10.3835 91.8717 10.9143 91.5674 11.4448 91.2625C12.8411 90.4619 14.241 89.6679 15.6419 88.8752C17.0709 88.065 18.4964 87.2487 19.9222 86.4328C22.7198 84.8332 25.5213 83.2405 28.3253 81.6522C28.141 81.3386 27.9567 81.025 27.7669 80.7019C26.032 77.748 24.303 74.7909 22.5795 71.8305C21.6932 70.3085 20.8049 68.7878 19.912 67.2697C19.0506 65.805 18.1945 64.3374 17.3421 62.8674C17.0157 62.3068 16.6874 61.7472 16.3572 61.1888C15.8954 60.4073 15.4406 59.6221 14.9873 58.8357C14.8488 58.605 14.7104 58.3742 14.5678 58.1365C13.6666 56.5502 13.6666 56.5502 13.8221 55.3343C14.486 53.8714 15.5295 53.3986 16.8849 52.6349C17.1041 52.5101 17.3232 52.3852 17.549 52.2565C18.0908 51.948 18.6336 51.6411 19.1765 51.3346C18.9638 50.9827 18.7511 50.6308 18.532 50.2683C17.7437 48.9599 16.9645 47.6463 16.1879 46.331C15.8507 45.7628 15.5111 45.196 15.169 44.6307C14.6772 43.8172 14.1945 42.9989 13.7132 42.1791C13.5588 41.928 13.4045 41.6769 13.2454 41.4181C13.1068 41.1783 12.9682 40.9384 12.8254 40.6913C12.7012 40.4831 12.5769 40.275 12.4489 40.0605C11.8905 38.0014 13.0225 36.8606 14.6867 35.8988ZM18.7746 39.9423C20.4356 42.8193 22.0967 45.6963 23.8081 48.6606C37.3841 40.8225 50.9601 32.9843 64.9475 24.9087C63.2864 22.0317 61.6254 19.1546 59.914 16.1904C46.338 24.0285 32.762 31.8666 18.7746 39.9423ZM20.2159 56.91C25.7136 66.689 25.7136 66.689 31.2475 76.4474C33.5123 80.4225 35.7731 84.3997 38.0081 88.3916C39.636 91.299 41.2772 94.1984 42.9347 97.089C43.8118 98.6196 44.6818 100.153 45.5359 101.697C46.3407 103.151 47.1631 104.593 47.9997 106.029C48.3029 106.557 48.5997 107.088 48.8892 107.624C50.2777 110.386 50.2777 110.386 52.6396 112.204C54.2247 112.569 55.7606 112.53 57.3771 112.466C57.9737 112.514 58.5699 112.57 59.1638 112.644C59.5517 112.683 59.5517 112.683 59.9475 112.723C60.2048 112.75 60.462 112.776 60.7271 112.803C61.0107 112.831 61.2944 112.86 61.5866 112.889C63.1866 113.052 64.7839 113.229 66.3806 113.422C66.7176 113.463 67.0547 113.503 67.4019 113.544C68.0557 113.623 68.7091 113.703 69.3623 113.787C69.6569 113.822 69.9515 113.857 70.255 113.893C70.5156 113.926 70.7763 113.958 71.0448 113.992C71.7666 114.06 71.7666 114.06 72.522 113.531C72.8503 112.988 72.8503 112.988 73.1227 112.33C73.2892 111.953 73.2892 111.953 73.4591 111.569C73.5771 111.295 73.6951 111.022 73.8167 110.74C73.9417 110.455 74.0668 110.171 74.1956 109.878C74.5932 108.972 74.9874 108.065 75.3811 107.158C75.6304 106.587 75.8799 106.016 76.1295 105.445C76.4988 104.601 76.8678 103.757 77.2361 102.913C78.13 100.864 79.034 98.8199 79.9467 96.7795C80.1291 96.3704 80.1291 96.3704 80.3153 95.953C80.4277 95.7025 80.5401 95.4519 80.6559 95.1937C80.8041 94.8628 80.8041 94.8628 80.9554 94.5252C81.5032 93.3763 82.0621 92.9613 83.2369 92.4506C84.2171 92.3988 85.1651 92.5179 86.1375 92.6377C86.4223 92.6683 86.7072 92.6989 87.0007 92.7304C87.9198 92.8304 88.8378 92.938 89.7561 93.0459C90.3644 93.1138 90.9728 93.1812 91.5812 93.248C92.8166 93.3844 94.0517 93.5234 95.2867 93.6643C97.9232 93.9628 100.563 94.2274 103.203 94.4931C105.029 94.6775 106.854 94.8657 108.679 95.0531C109.21 95.1074 109.741 95.1615 110.272 95.2151C110.788 95.2677 111.305 95.3214 111.821 95.3764C112.946 95.6029 112.946 95.6029 113.999 95.3963C100.762 72.47 87.5255 49.5436 73.8878 25.9225C56.1761 36.1484 38.4643 46.3742 20.2159 56.91ZM10.8383 97.9238C18.9879 112.039 27.1375 126.155 35.534 140.698C36.4766 138.791 37.3775 136.918 38.1936 134.962C39.0783 132.868 39.9858 130.785 40.9192 128.712C41.0378 128.448 41.1565 128.184 41.2788 127.912C41.7671 126.829 42.2564 125.746 42.7464 124.663C42.8699 124.39 42.9934 124.117 43.1206 123.836C43.2434 123.565 43.3662 123.294 43.4927 123.015C43.7347 122.476 43.9736 121.936 44.2093 121.394C44.825 119.981 45.4692 118.636 46.2833 117.326C47.1683 115.538 47.1684 115.538 46.9538 113.648C46.5571 112.898 46.126 112.188 45.6661 111.476C45.5133 111.226 45.3605 110.977 45.2031 110.72C44.8267 110.108 44.4442 109.501 44.055 108.897C43.8852 108.991 43.7153 109.085 43.5403 109.183C41.7731 110.164 40.005 111.143 38.2363 112.121C37.5762 112.486 36.9164 112.852 36.2568 113.219C35.309 113.745 34.3604 114.269 33.4115 114.794C33.1165 114.958 32.8215 115.122 32.5176 115.291C32.2418 115.443 31.9661 115.595 31.6819 115.752C31.4399 115.886 31.1979 116.02 30.9485 116.158C30.3123 116.471 29.7151 116.676 29.0283 116.846C28.2512 116.11 27.7389 115.328 27.1983 114.407C27.0183 114.101 26.8382 113.795 26.6527 113.48C26.4607 113.15 26.2686 112.82 26.0707 112.48C25.8726 112.141 25.6744 111.801 25.4702 111.451C25.0519 110.732 24.6343 110.014 24.2177 109.294C23.6841 108.373 23.1455 107.456 22.6056 106.538C22.0908 105.661 21.5818 104.781 21.072 103.901C20.8777 103.572 20.6835 103.243 20.4833 102.905C20.3067 102.597 20.1301 102.289 19.9481 101.972C19.7912 101.703 19.6342 101.433 19.4725 101.155C19.1074 100.252 19.1111 99.7608 19.3489 98.8224C19.9851 98.105 20.4828 97.7496 21.2949 97.261C21.691 97.0214 21.691 97.0214 22.0952 96.777C22.3803 96.6063 22.6655 96.4356 22.9593 96.2597C23.3971 95.9956 23.3971 95.9956 23.8438 95.7262C24.7773 95.1634 25.7119 94.6025 26.6465 94.0415C27.2791 93.6606 27.9117 93.2795 28.5442 92.8983C30.0959 91.9636 31.6485 91.0304 33.2015 90.098C32.4748 88.8393 31.7481 87.5806 30.9994 86.2838C24.3462 90.125 17.6931 93.9662 10.8383 97.9238ZM25.2502 100.864C27.067 104.011 28.8837 107.158 30.7556 110.4C34.262 108.375 37.7683 106.351 41.381 104.265C39.5642 101.119 37.7474 97.9717 35.8756 94.7296C32.3692 96.754 28.8628 98.7785 25.2502 100.864ZM98.8107 58.394C101.551 63.3323 104.312 68.2586 107.098 73.1717C108.391 75.4535 109.677 77.7386 110.948 80.033C112.056 82.0336 113.176 84.0267 114.312 86.0118C114.912 87.0626 115.506 88.1161 116.085 89.1788C118.3 93.8544 118.3 93.8544 122.078 96.9251C123.339 97.1808 124.513 97.0998 125.79 96.9437C126.391 96.9656 126.992 96.9955 127.592 97.0381C127.976 97.0412 128.36 97.0443 128.756 97.0475C128.72 96.8433 128.685 96.639 128.648 96.4286C128.679 95.3871 129.026 95.0759 129.719 94.3118C130.382 93.8368 130.382 93.8368 131.137 93.3992C131.421 93.2332 131.704 93.0671 131.996 92.8961C132.302 92.7213 132.607 92.5466 132.921 92.3666C133.394 92.0927 133.394 92.0927 133.876 91.8133C134.542 91.4285 135.208 91.045 135.875 90.6628C136.896 90.0775 137.913 89.4864 138.93 88.8947C139.577 88.5213 140.225 88.1482 140.873 87.7755C141.177 87.5986 141.481 87.4216 141.794 87.2393C142.223 86.9954 142.223 86.9954 142.66 86.7466C142.909 86.6031 143.159 86.4595 143.416 86.3116C144.25 85.9339 144.922 85.7799 145.836 85.7334C146.984 86.3013 147.162 86.6166 147.785 87.699C148.053 88.1593 148.053 88.1593 148.325 88.6289C148.61 89.1286 148.61 89.1286 148.9 89.6385C149.097 89.9795 149.294 90.3205 149.497 90.6719C149.912 91.3941 150.327 92.1167 150.74 92.8405C151.269 93.7669 151.801 94.6912 152.335 95.6149C152.844 96.4972 153.351 97.3809 153.858 98.2645C154.049 98.5961 154.24 98.9278 154.437 99.2695C154.613 99.5787 154.789 99.8879 154.971 100.206C155.126 100.478 155.282 100.75 155.442 101.029C155.781 101.692 156.003 102.291 156.175 103.013C155.439 103.79 154.658 104.302 153.736 104.843C153.43 105.023 153.124 105.203 152.809 105.388C152.479 105.58 152.149 105.772 151.809 105.97C151.47 106.168 151.13 106.367 150.78 106.571C150.062 106.989 149.343 107.407 148.623 107.823C147.702 108.357 146.785 108.896 145.867 109.435C144.99 109.95 144.11 110.459 143.23 110.969C142.901 111.163 142.573 111.358 142.234 111.558C141.926 111.734 141.618 111.911 141.301 112.093C140.897 112.328 140.897 112.328 140.484 112.569C139.586 112.932 139.086 112.918 138.152 112.692C137.57 112.206 137.57 112.206 137.074 111.612C136.906 111.415 136.738 111.218 136.565 111.016C136.442 110.864 136.318 110.711 136.191 110.555C135.924 110.675 135.924 110.675 135.651 110.797C133.719 111.568 132.334 111.606 130.296 111.22C129.65 111.023 129.65 111.023 129.326 111.249C133.79 118.981 138.255 126.713 142.854 134.679C152.744 128.969 162.633 123.259 172.823 117.376C161.196 97.2371 149.568 77.0979 137.588 56.3483C132.485 56.5425 132.485 56.5425 127.384 56.7753C126.959 56.7964 126.959 56.7964 126.526 56.818C125.63 56.8627 124.734 56.908 123.839 56.9534C123.528 56.9691 123.216 56.9847 122.896 57.0008C118.586 57.2178 114.279 57.4568 109.972 57.7256C106.972 57.9127 103.974 58.0658 100.97 58.1612C99.8483 58.1098 99.8483 58.1098 98.8107 58.394ZM51.74 117.174C51.6649 117.347 51.5897 117.52 51.5123 117.697C50.1357 120.86 48.753 124.019 47.3361 127.164C46.3494 129.353 45.3785 131.55 44.4193 133.752C43.3451 136.218 42.2525 138.675 41.1475 141.128C40.1537 143.337 39.1829 145.557 38.2156 147.778C37.2311 150.035 36.2275 152.284 35.2134 154.528C34.4555 156.208 33.7217 157.898 33.0037 159.595C33.8873 160.629 34.7371 160.806 36.0541 161.104C36.163 160.833 36.272 160.563 36.3842 160.284C37.4537 157.652 38.586 155.053 39.7559 152.464C40.6417 150.502 41.5101 148.533 42.3692 146.56C43.9088 143.026 45.4871 139.511 47.0706 135.997C50.0978 129.48 50.0978 129.48 52.835 122.843C53.3608 121.765 54.2574 121.299 55.3465 120.904C56.2189 120.878 56.8963 120.912 57.7421 121.042C58.2208 121.102 58.6995 121.162 59.1783 121.222C59.4308 121.256 59.6833 121.29 59.9435 121.325C61.3203 121.502 62.7023 121.628 64.0837 121.763C66.8254 122.041 69.564 122.345 72.3022 122.655C74.3788 122.889 76.4565 123.108 78.5357 123.318C80.9256 123.558 83.3129 123.815 85.6995 124.086C88.2019 124.368 90.705 124.643 93.2098 124.903C93.4973 124.934 93.7849 124.964 94.0811 124.996C95.4486 125.136 96.7952 125.247 98.1719 125.24C98.2242 124.802 98.2737 124.365 98.3221 123.927C98.35 123.683 98.3779 123.44 98.4066 123.189C98.4909 122.534 98.4909 122.534 98.1184 122.001C97.5357 121.871 97.5357 121.871 96.827 121.822C96.4153 121.783 96.4153 121.783 95.9953 121.743C95.6951 121.717 95.3948 121.691 95.0855 121.664C94.4465 121.603 93.8075 121.543 93.1685 121.482C92.8375 121.451 92.5064 121.42 92.1654 121.388C90.6016 121.236 89.0411 121.057 87.4802 120.878C85.0936 120.607 82.7062 120.35 80.3164 120.11C77.6159 119.838 74.9188 119.542 72.2219 119.237C69.8617 118.97 67.4998 118.725 65.1365 118.488C62.6565 118.238 60.1799 117.96 57.7043 117.67C55.7185 117.442 53.7357 117.285 51.74 117.174ZM83.7381 100.948C83.5217 101.473 83.3048 101.999 83.0873 102.524C82.9743 102.798 82.8614 103.073 82.745 103.355C82.158 104.758 81.5344 106.144 80.9091 107.53C80.7887 107.798 80.6683 108.065 80.5443 108.341C79.6819 110.253 78.8073 112.158 77.9092 114.053C78.8476 114.708 79.4755 115.033 80.6449 115.016C81.6907 114.278 82.0838 113.129 82.5776 111.993C82.6729 111.782 82.7682 111.57 82.8664 111.351C83.4397 110.072 83.9877 108.785 84.5239 107.49C84.6449 107.205 84.7658 106.919 84.8905 106.626C85.1273 106.067 85.3584 105.506 85.5833 104.942C86.2051 103.488 86.7569 102.411 88.228 101.72C89.5028 101.389 90.7207 101.595 92.007 101.782C92.3095 101.819 92.6121 101.856 92.9239 101.895C93.5631 101.974 94.202 102.056 94.8405 102.141C96.3898 102.343 97.9427 102.509 99.4957 102.68C100.115 102.75 100.734 102.82 101.354 102.89C103.121 103.088 104.89 103.27 106.659 103.448C109.049 103.688 111.437 103.945 113.823 104.216C117.07 104.583 120.318 104.922 123.569 105.249C125.17 105.411 126.77 105.575 128.37 105.739C128.958 105.799 129.546 105.859 130.135 105.919C130.56 105.963 130.985 106.006 131.41 106.05C131.814 104.81 131.891 103.933 131.629 102.654C131.244 102.62 130.859 102.587 130.463 102.553C127.141 102.259 123.827 101.924 120.514 101.546C118.43 101.309 116.344 101.087 114.257 100.878C111.557 100.606 108.859 100.31 106.163 100.004C104.086 99.77 102.009 99.5508 99.9295 99.3416C97.4603 99.0928 94.993 98.829 92.5267 98.5526C92.2278 98.5192 91.9289 98.4857 91.621 98.4512C91.1905 98.4026 91.1905 98.4026 90.7513 98.3531C90.4735 98.3224 90.1958 98.2918 89.9097 98.2602C89.3406 98.1922 88.7725 98.1153 88.2056 98.0305C87.9289 97.9903 87.6523 97.9501 87.3673 97.9087C86.9981 97.8507 86.9981 97.8507 86.6215 97.7915C84.6874 97.771 84.3326 99.4504 83.7381 100.948ZM89.768 108.472C89.6628 108.723 89.5576 108.974 89.4492 109.232C89.3404 109.496 89.2316 109.76 89.1196 110.033C88.4106 111.739 87.6904 113.421 86.8495 115.067C87.8139 115.922 88.641 115.888 89.8728 115.978C90.3571 116.019 90.8413 116.06 91.3255 116.102C91.5889 116.125 91.8523 116.147 92.1236 116.171C93.7124 116.316 95.2973 116.497 96.8826 116.676C97.1965 116.71 97.5104 116.745 97.8337 116.781C102.562 117.312 102.562 117.312 103.46 118.395C104.097 119.913 103.854 121.183 103.663 122.796C103.634 123.047 103.606 123.298 103.576 123.556C102.981 128.78 102.981 128.78 102.795 129.473C101.146 130.773 100.179 130.982 98.0793 130.742C97.4155 130.641 96.7517 130.54 96.0879 130.439C95.998 130.491 95.9081 130.543 95.8154 130.596C100.28 138.328 104.744 146.06 109.343 154.027C118.873 148.524 128.403 143.022 138.222 137.353C135.805 132.92 133.388 128.486 130.897 123.919C130.151 122.518 129.406 121.117 128.637 119.674C127.935 118.418 127.935 118.418 127.226 117.167C126.917 116.613 126.618 116.053 126.328 115.489C124.69 112.166 124.69 112.166 121.804 110.056C119.936 109.628 118.087 109.555 116.176 109.565C114.706 109.549 113.256 109.369 111.797 109.2C111.222 109.141 110.648 109.083 110.073 109.026C107.951 108.809 105.831 108.568 103.712 108.328C101.264 108.052 98.8154 107.796 96.3648 107.552C96.0993 107.526 95.8339 107.499 95.5605 107.472C95.3039 107.446 95.0473 107.421 94.783 107.394C93.6842 107.275 92.5897 107.126 91.4951 106.973C90.3235 106.897 90.1738 107.492 89.768 108.472ZM55.885 128.994C55.7629 129.259 55.6408 129.525 55.5151 129.798C54.4804 132.06 53.4808 134.336 52.4894 136.617C51.6529 138.541 50.8021 140.458 49.9402 142.37C48.9251 144.625 47.9214 146.884 46.9292 149.149C46.8097 149.421 46.6902 149.693 46.5671 149.973C46.3417 150.489 46.1232 151.007 45.9132 151.529C45.5363 152.36 45.5363 152.36 45.059 153.023C44.4691 153.961 44.2653 154.568 44.1853 155.682C44.8458 157.922 46.2581 159.929 47.4599 161.907C47.812 162.506 48.163 163.106 48.5131 163.707C49.4351 165.282 50.3716 166.849 51.3113 168.414C52.2685 170.014 53.2118 171.622 54.1563 173.229C56.0099 176.379 57.8801 179.519 59.7577 182.655C63.5338 180.474 67.3099 178.294 71.2005 176.048C70.4831 174.775 69.7656 173.501 69.0265 172.189C68.573 171.382 68.1197 170.574 67.667 169.766C66.9485 168.483 66.2294 167.201 65.5069 165.921C64.9243 164.889 64.3444 163.855 63.7663 162.821C63.5453 162.426 63.3234 162.032 63.1006 161.639C62.7885 161.088 62.48 160.535 62.1717 159.981C61.9951 159.667 61.8185 159.353 61.6366 159.029C61.2578 158.202 61.1071 157.679 61.1643 156.777C61.7223 155.932 62.4481 155.621 63.3218 155.11C63.5054 155.002 63.6889 154.894 63.8781 154.783C64.4867 154.427 65.0966 154.072 65.7067 153.718C66.13 153.471 66.5533 153.225 66.9766 152.978C67.8649 152.462 68.754 151.946 69.6435 151.431C70.7829 150.772 71.9194 150.107 73.0552 149.441C73.9288 148.93 74.8044 148.422 75.6807 147.916C76.1006 147.672 76.5197 147.427 76.938 147.181C77.5236 146.837 78.112 146.498 78.7013 146.16C79.0355 145.965 79.3697 145.771 79.714 145.571C80.7179 145.139 81.1543 145.002 82.1848 145.368C82.7831 146.077 82.7831 146.077 83.3546 147.05C83.5131 147.315 83.5131 147.315 83.6748 147.585C84.0225 148.169 84.3623 148.757 84.7023 149.345C84.942 149.751 85.1822 150.156 85.4228 150.561C86.0546 151.628 86.6798 152.698 87.3038 153.77C88.054 155.054 88.8121 156.335 89.5689 157.615C90.7175 159.562 91.8558 161.513 92.9962 163.464C96.8622 161.232 100.728 159 104.711 156.701C102.129 151.915 102.129 151.915 99.5019 147.155C98.4194 145.217 97.3424 143.276 96.2959 141.318C95.451 139.737 94.5835 138.171 93.6995 136.613C93.3676 136.018 93.0438 135.419 92.7288 134.815C91.1243 131.56 91.1243 131.56 88.3615 129.398C86.6798 128.962 85.0159 128.869 83.2849 128.87C81.9313 128.855 80.5922 128.701 79.2468 128.56C78.7056 128.513 78.1644 128.466 77.623 128.419C75.8391 128.261 74.0603 128.063 72.2809 127.86C69.251 127.514 66.2194 127.194 63.1852 126.889C62.2047 126.79 61.2248 126.688 60.2453 126.58C59.8578 126.537 59.4702 126.494 59.0709 126.45C58.7418 126.413 58.4128 126.376 58.0737 126.338C56.5759 126.216 56.4245 127.815 55.885 128.994ZM134.688 97.2553C135.075 97.5111 135.463 97.7669 135.862 98.0304C137.231 99.4716 137.231 99.4716 137.249 100.732C137.397 102.243 137.999 103.2 138.786 104.471C139.25 105.236 139.715 106.002 140.193 106.791C143.34 104.974 146.487 103.157 149.729 101.285C147.912 98.1387 146.095 94.992 144.224 91.7499C141.077 93.5666 137.93 95.3834 134.688 97.2553ZM67.338 158.662C70.1411 163.517 72.9441 168.372 75.8321 173.374C79.9678 170.986 84.1035 168.599 88.3646 166.138C85.5616 161.283 82.7585 156.428 79.8706 151.426C75.7348 153.814 71.5991 156.202 67.338 158.662Z" fill="#F5F5DC" fill-opacity="0.2"/>
<path d="M80.6395 68.6318C80.8555 68.5045 81.0716 68.3772 81.2942 68.246C81.5268 68.1119 81.7594 67.9779 81.999 67.8398C82.2392 67.7 82.4793 67.5602 82.7267 67.4161C83.2343 67.1215 83.7424 66.828 84.2512 66.5355C85.0292 66.0871 85.8039 65.6335 86.5786 65.1793C87.0724 64.8936 87.5663 64.6082 88.0605 64.3232C88.4076 64.119 88.4076 64.119 88.7617 63.9108C88.9796 63.7866 89.1975 63.6625 89.422 63.5347C89.6123 63.4246 89.8026 63.3146 89.9986 63.2012C90.7008 62.9195 91.2009 62.9127 91.95 62.9924C92.8088 63.417 92.9447 63.6541 93.413 64.4622C93.5471 64.6916 93.6813 64.921 93.8195 65.1573C93.9622 65.4064 94.1049 65.6555 94.252 65.9121C94.3997 66.1672 94.5475 66.4223 94.6998 66.6851C95.012 67.2253 95.3234 67.7659 95.6335 68.3073C96.0305 69.0003 96.4311 69.6912 96.8329 70.3814C97.2161 71.041 97.5962 71.7023 97.9766 72.3635C98.1207 72.6112 98.2649 72.8589 98.4134 73.1142C98.6113 73.4614 98.6113 73.4614 98.8132 73.8157C98.93 74.0188 99.0468 74.2219 99.1672 74.4311C99.439 75.0282 99.5429 75.3958 99.4876 76.048C99.1055 76.8589 98.5577 77.2001 97.7976 77.6467C97.5697 77.7818 97.3417 77.9169 97.1069 78.056C96.8602 78.1991 96.6136 78.3421 96.3594 78.4894C95.9788 78.7119 95.9788 78.7119 95.5905 78.9388C95.0534 79.2517 94.5159 79.5635 93.9775 79.8741C93.2892 80.2714 92.6043 80.6742 91.9201 81.0786C91.265 81.4644 90.6065 81.8442 89.9483 82.2249C89.7035 82.3701 89.4587 82.5154 89.2064 82.665C88.9756 82.7966 88.7448 82.9282 88.507 83.0638C88.3055 83.1809 88.104 83.298 87.8964 83.4187C87.1023 83.704 86.5987 83.621 85.7885 83.4132C85.2237 82.9124 84.9523 82.5012 84.5729 81.8548C84.4432 81.6346 84.3135 81.4144 84.1798 81.1876C84.0409 80.9491 83.9021 80.7105 83.759 80.4647C83.6159 80.2196 83.4729 79.9746 83.3255 79.7221C83.0232 79.2029 82.7215 78.6834 82.4203 78.1636C81.9587 77.3687 81.4929 76.5764 81.0269 75.7841C80.7339 75.2797 80.4411 74.7751 80.1487 74.2704C80.0086 74.0336 79.8685 73.7968 79.7242 73.5529C79.5963 73.3299 79.4684 73.107 79.3367 72.8773C79.2232 72.6826 79.1098 72.4878 78.9929 72.2871C78.6992 71.566 78.666 71.0962 78.7766 70.326C79.2624 69.521 79.8359 69.1011 80.6395 68.6318ZM83.3992 71.7371C84.7595 74.0932 86.1198 76.4493 87.5213 78.8769C89.8775 77.5166 92.2336 76.1562 94.6611 74.7547C93.3008 72.3986 91.9405 70.0425 90.539 67.6149C88.1828 68.9752 85.8267 70.3356 83.3992 71.7371Z" fill="#F5F5DC" fill-opacity="0.2"/>
<path d="M18.0633 60.1845C18.2835 60.0548 18.5036 59.925 18.7305 59.7914C19.0883 59.5831 19.0883 59.5831 19.4534 59.3705C19.6984 59.2275 19.9435 59.0844 20.196 58.9371C20.7152 58.6347 21.2347 58.333 21.7545 58.0319C22.5494 57.5703 23.3416 57.1044 24.1339 56.6384C24.6384 56.3454 25.1429 56.0527 25.6477 55.7602C25.8845 55.6202 26.1213 55.4801 26.3652 55.3358C26.5881 55.2079 26.8111 55.08 27.0407 54.9482C27.3329 54.7781 27.3329 54.7781 27.631 54.6045C28.3335 54.3183 28.8417 54.3107 29.592 54.3882C30.1714 54.7707 30.3699 55.1977 30.7216 55.7976C30.8611 56.0348 31.0007 56.2719 31.1444 56.5163C31.2946 56.7744 31.4448 57.0325 31.5995 57.2984C31.7534 57.5624 31.9074 57.8263 32.066 58.0983C32.3919 58.6578 32.7168 59.2179 33.0413 59.7782C33.457 60.4956 33.8764 61.2107 34.2967 61.9253C34.697 62.6077 35.0929 63.2926 35.4895 63.9772C35.6409 64.2336 35.7922 64.4899 35.9481 64.754C36.0859 64.9939 36.2236 65.2338 36.3654 65.481C36.5491 65.7966 36.5491 65.7966 36.7365 66.1184C37.0179 66.8057 37.0236 67.1688 36.8395 67.8833C36.3345 68.4528 35.9148 68.7269 35.2623 69.1097C34.9259 69.3078 34.9259 69.3078 34.5828 69.51C34.3398 69.6514 34.0967 69.7929 33.8464 69.9386C33.472 70.1571 33.472 70.1571 33.09 70.38C32.5612 70.6879 32.0321 70.9951 31.5027 71.3018C30.6931 71.7719 29.886 72.2463 29.0789 72.7209C28.5652 73.0192 28.0513 73.3174 27.5373 73.6152C27.296 73.7578 27.0548 73.9005 26.8063 74.0474C26.4657 74.2428 26.4657 74.2428 26.1183 74.4421C25.9199 74.5577 25.7215 74.6732 25.5171 74.7922C24.8103 75.0817 24.3038 75.0919 23.5483 75.013C22.9695 74.6308 22.7687 74.2038 22.4155 73.6054C22.2052 73.2502 22.2052 73.2502 21.9907 72.8879C21.8399 72.6302 21.6891 72.3724 21.5337 72.1069C21.3793 71.8432 21.2248 71.5795 21.0657 71.3079C20.7389 70.7489 20.4131 70.1893 20.0878 69.6294C19.671 68.9127 19.2495 68.1989 18.8269 67.4856C18.4247 66.8042 18.0282 66.1196 17.6309 65.4354C17.4023 65.0519 17.4023 65.0519 17.1691 64.6605C17.0314 64.4206 16.8937 64.1807 16.7518 63.9335C16.6289 63.7234 16.506 63.5133 16.3794 63.2969C16.1015 62.5246 16.2035 62.1531 16.5049 61.4001C17.0057 60.8353 17.4168 60.5639 18.0633 60.1845ZM21.0412 63.1329C22.4015 65.489 23.7618 67.8451 25.1634 70.2727C27.4522 68.9512 29.741 67.6298 32.0992 66.2683C30.7388 63.9122 29.3785 61.556 27.977 59.1285C25.6882 60.45 23.3994 61.7714 21.0412 63.1329Z" fill="#F5F5DC" fill-opacity="0.2"/>
<path d="M27.699 76.9245C27.9144 76.7976 28.1298 76.6706 28.3517 76.5398C28.5852 76.4038 28.8186 76.2679 29.0592 76.1278C29.4193 75.9176 29.4193 75.9176 29.7866 75.7031C30.2953 75.4068 30.8044 75.1112 31.3137 74.816C32.0916 74.3643 32.8669 73.9083 33.6421 73.4521C34.1366 73.1648 34.6312 72.8778 35.126 72.5911C35.3573 72.4542 35.5885 72.3174 35.8268 72.1763C37.8831 70.9968 37.8831 70.9968 39.2496 71.1156C39.829 71.4981 40.0275 71.925 40.3792 72.525C40.5187 72.7622 40.6583 72.9993 40.802 73.2437C40.9522 73.5018 41.1024 73.7599 41.2571 74.0258C41.4111 74.2898 41.565 74.5537 41.7236 74.8257C42.0495 75.3852 42.3745 75.9453 42.6989 76.5056C43.1146 77.223 43.534 77.938 43.9543 78.6527C44.3546 79.3351 44.7506 80.02 45.1471 80.7046C45.2985 80.9609 45.4498 81.2173 45.6057 81.4814C45.7435 81.7213 45.8812 81.9612 46.0231 82.2084C46.2067 82.5239 46.2067 82.5239 46.3941 82.8458C46.6755 83.5331 46.6812 83.8962 46.4971 84.6107C45.9921 85.1802 45.5724 85.4543 44.9199 85.8371C44.5836 86.0352 44.5836 86.0352 44.2404 86.2373C43.9974 86.3788 43.7544 86.5203 43.504 86.666C43.1296 86.8845 43.1296 86.8845 42.7476 87.1074C42.2188 87.4153 41.6897 87.7225 41.1603 88.0292C40.3507 88.4993 39.5436 88.9737 38.7365 89.4482C38.2228 89.7466 37.7089 90.0447 37.1949 90.3426C36.9536 90.4852 36.7124 90.6279 36.4639 90.7748C36.1233 90.9702 36.1233 90.9702 35.7759 91.1695C35.5775 91.285 35.3791 91.4006 35.1747 91.5196C34.4679 91.8091 33.9615 91.8193 33.2059 91.7404C32.6271 91.3582 32.4263 90.9312 32.0731 90.3328C31.8628 89.9776 31.8628 89.9776 31.6483 89.6153C31.4975 89.3575 31.3467 89.0998 31.1913 88.8343C31.0369 88.5706 30.8824 88.3069 30.7233 88.0352C30.3965 87.4763 30.0707 86.9167 29.7454 86.3568C29.3286 85.6401 28.9072 84.9263 28.4845 84.213C28.0823 83.5316 27.6859 82.847 27.2885 82.1628C27.0599 81.7792 27.0599 81.7792 26.8267 81.3879C26.689 81.148 26.5513 80.9081 26.4094 80.6609C26.2865 80.4508 26.1636 80.2407 26.037 80.0243C25.7591 79.252 25.8611 78.8804 26.1625 78.1275C26.6584 77.5682 27.0595 77.3 27.699 76.9245ZM30.6988 79.8603C32.0591 82.2164 33.4194 84.5725 34.821 87.0001C37.1098 85.6786 39.3986 84.3572 41.7568 82.9957C40.3964 80.6395 39.0361 78.2834 37.6346 75.8559C35.3458 77.1773 33.057 78.4988 30.6988 79.8603Z" fill="#F5F5DC" fill-opacity="0.2"/>
<path d="M34.7909 50.5267C35.011 50.397 35.2312 50.2673 35.458 50.1337C35.8158 49.9253 35.8158 49.9253 36.1809 49.7128C36.426 49.5697 36.6711 49.4267 36.9236 49.2793C37.4427 48.977 37.9622 48.6753 38.482 48.3741C39.2769 47.9126 40.0692 47.4467 40.8615 46.9807C41.3659 46.6877 41.8705 46.3949 42.3752 46.1025C42.612 45.9624 42.8488 45.8224 43.0927 45.6781C43.3157 45.5502 43.5386 45.4223 43.7683 45.2905C44.0604 45.1203 44.0604 45.1203 44.3585 44.9467C45.061 44.6606 45.5692 44.653 46.3196 44.7304C46.9047 45.1168 47.1067 45.556 47.4618 46.1618C47.6041 46.4038 47.7464 46.6457 47.893 46.8949C48.0461 47.1581 48.1992 47.4213 48.3569 47.6925C48.5154 47.9642 48.6738 48.2359 48.8322 48.5075C49.1642 49.0775 49.4951 49.648 49.8256 50.2189C50.2495 50.9504 50.6771 51.6797 51.1056 52.4085C51.4342 52.9689 51.7601 53.5309 52.0853 54.0934C52.3179 54.4941 52.5533 54.8932 52.7888 55.2922C52.9289 55.5363 53.069 55.7803 53.2133 56.0317C53.4005 56.3534 53.4005 56.3534 53.5915 56.6815C53.8257 57.2603 53.8257 57.2603 53.7655 57.7849C53.3786 58.6439 52.7702 58.9931 51.9847 59.4506C51.7595 59.5824 51.5342 59.7142 51.3021 59.85C51.058 59.9912 50.814 60.1324 50.5626 60.2779C50.3122 60.4233 50.0619 60.5688 49.8039 60.7186C49.2738 61.0261 48.7433 61.333 48.2126 61.6394C47.3995 62.1087 46.589 62.5823 45.7782 63.0556C45.2634 63.3536 44.7484 63.6514 44.2334 63.949C43.869 64.1623 43.869 64.1623 43.4973 64.3799C43.2703 64.5102 43.0433 64.6404 42.8093 64.7746C42.6102 64.8899 42.4111 65.0053 42.206 65.1241C41.6128 65.395 41.2462 65.4957 40.5976 65.4415C39.7867 65.0593 39.4455 64.5115 38.9989 63.7514C38.8638 63.5235 38.7287 63.2956 38.5896 63.0607C38.4466 62.8141 38.3035 62.5674 38.1562 62.3132C38.0079 62.0595 37.8596 61.8058 37.7068 61.5444C37.3939 61.0073 37.0821 60.4697 36.7715 59.9313C36.3742 59.243 35.9714 58.5581 35.567 57.874C35.1812 57.2188 34.8014 56.5603 34.4207 55.9022C34.2755 55.6573 34.1302 55.4125 33.9806 55.1603C33.849 54.9295 33.7174 54.6987 33.5818 54.4609C33.4647 54.2594 33.3476 54.0578 33.2269 53.8502C32.9416 53.0562 33.0246 52.5526 33.2324 51.7423C33.7332 51.1776 34.1444 50.9062 34.7909 50.5267ZM37.7687 53.4752C39.1291 55.8313 40.4894 58.1874 41.8909 60.6149C44.247 59.2546 46.6032 57.8943 49.0307 56.4928C47.6704 54.1366 46.3101 51.7805 44.9085 49.353C42.5524 50.7133 40.1963 52.0736 37.7687 53.4752Z" fill="#F5F5DC" fill-opacity="0.2"/>
<path d="M44.4265 67.2671C44.6419 67.1401 44.8573 67.0131 45.0793 66.8823C45.3127 66.7463 45.5462 66.6104 45.7867 66.4703C46.1468 66.2601 46.1468 66.2601 46.5142 66.0456C47.0229 65.7494 47.5319 65.4537 48.0413 65.1586C48.8191 64.7068 49.5944 64.2508 50.3697 63.7946C50.8641 63.5073 51.3588 63.2203 51.8536 62.9336C52.0848 62.7967 52.3161 62.6599 52.5543 62.5188C54.6107 61.3393 54.6107 61.3393 55.9772 61.4581C56.5623 61.8444 56.7643 62.2836 57.1194 62.8895C57.2617 63.1314 57.404 63.3733 57.5506 63.6225C57.7037 63.8857 57.8568 64.1489 58.0145 64.4201C58.173 64.6918 58.3314 64.9635 58.4898 65.2352C58.8218 65.8052 59.1527 66.3757 59.4832 66.9465C59.9071 67.678 60.3347 68.4073 60.7632 69.1361C61.0918 69.6966 61.4177 70.2586 61.7429 70.821C61.9755 71.2218 62.2109 71.6208 62.4464 72.0199C62.5865 72.2639 62.7266 72.5079 62.8709 72.7594C63.0581 73.081 63.0581 73.081 63.2491 73.4091C63.4833 73.9879 63.4833 73.9879 63.4231 74.5125C63.0362 75.3716 62.4278 75.7207 61.6423 76.1783C61.4171 76.3101 61.1918 76.4419 60.9597 76.5776C60.7156 76.7188 60.4716 76.86 60.2202 77.0055C59.9698 77.151 59.7195 77.2964 59.4615 77.4463C58.9314 77.7537 58.4009 78.0606 57.8702 78.367C57.0572 78.8364 56.2466 79.3099 55.4358 79.7832C54.921 80.0812 54.4061 80.379 53.891 80.6767C53.5266 80.89 53.5266 80.89 53.1549 81.1076C52.9279 81.2378 52.7009 81.368 52.467 81.5022C52.2678 81.6176 52.0687 81.7329 51.8636 81.8518C51.2704 82.1226 50.9038 82.2233 50.2552 82.1691C49.4444 81.787 49.1031 81.2391 48.6565 80.4791C48.5214 80.2511 48.3863 80.0232 48.2472 79.7884C48.1042 79.5417 47.9611 79.295 47.8138 79.0409C47.6655 78.7871 47.5172 78.5334 47.3644 78.272C47.0516 77.7349 46.7397 77.1974 46.4292 76.6589C46.0318 75.9706 45.629 75.2858 45.2246 74.6016C44.8388 73.9465 44.459 73.2879 44.0784 72.6298C43.9331 72.385 43.7878 72.1401 43.6382 71.8879C43.5066 71.6571 43.375 71.4263 43.2394 71.1885C43.1223 70.987 43.0052 70.7855 42.8846 70.5779C42.5992 69.7838 42.6822 69.2802 42.89 68.47C43.3859 67.9107 43.7871 67.6425 44.4265 67.2671ZM47.4264 70.2028C48.7867 72.5589 50.147 74.915 51.5485 77.3426C53.9046 75.9823 56.2608 74.6219 58.6883 73.2204C57.328 70.8643 55.9677 68.5082 54.5661 66.0806C52.21 67.4409 49.8539 68.8012 47.4264 70.2028Z" fill="#F5F5DC" fill-opacity="0.2"/>
<path d="M39.1031 112.407C40.5598 112.332 41.9219 112.77 43.1343 113.569C44.3152 114.659 45.3165 116.358 45.4789 117.974C45.4399 119.684 44.7646 121.222 43.5979 122.46C42.2038 123.511 40.8111 124.119 39.0469 123.999C37.0912 123.607 35.7321 122.769 34.5824 121.154C33.8472 119.743 33.5229 118.145 33.9595 116.601C34.98 114.364 36.5662 112.793 39.1031 112.407ZM37.8838 118.687C38.2925 119.429 38.5593 119.721 39.3723 119.969C40.0945 119.926 40.4277 119.81 40.9838 119.345C41.3018 118.748 41.3018 118.748 41.3286 118.058C41.018 117.229 40.8076 116.919 39.998 116.548C39.3432 116.448 39.3432 116.448 38.7714 116.661C38.0949 117.279 37.9858 117.788 37.8838 118.687Z" fill="#F5F5DC" fill-opacity="0.2"/>
</g>
<defs>
<clipPath id="clip0_118_5782">
<rect width="120.602" height="120.602" fill="white" transform="translate(-32 60.3013) rotate(-30)"/>
</clipPath>
</defs>
</svg>
