<svg width="96" height="96" viewBox="0 0 96 96" fill="none" xmlns="http://www.w3.org/2000/svg">
<g clip-path="url(#clip0_118_5827)">
<path d="M41.5312 13.6874C43.5 14.9999 43.5 14.9999 44.7861 16.5497C47.1389 18.5405 48.8473 18.424 51.8906 18.5155C56.9479 18.6978 56.9479 18.6978 57.75 19.4999C57.75 21.4799 57.75 23.4599 57.75 25.4999C62.9475 25.4999 68.145 25.4999 73.5 25.4999C74.5568 27.6136 74.3339 29.3793 74.3232 31.7401C74.3196 33.1541 74.3196 33.1541 74.3159 34.5966C74.3065 36.0801 74.3065 36.0801 74.2969 37.5936C74.2931 38.5985 74.2897 39.6034 74.2866 40.6083C74.2777 43.0722 74.2654 45.536 74.25 47.9999C74.745 47.9999 75.24 47.9999 75.75 47.9999C75.75 49.2374 75.75 50.4749 75.75 51.7499C60.6525 51.7499 45.555 51.7499 30 51.7499C30 49.7499 30 47.7499 30 45.7499C29.0708 44.1119 28.1191 42.544 27.0937 40.9686C23.3833 35.226 20.9828 29.8976 22.0224 22.9218C23.2245 18.5559 25.4426 15.9228 29.25 13.4999C33.3336 12.1387 37.5011 12.1947 41.5312 13.6874ZM27.5156 20.2499C25.5605 23.7256 25.6474 26.8564 26.25 30.7499C28.0718 35.9518 31.35 40.5184 34.5 44.9999C37.4753 44.0081 38.2716 42.1759 39.7969 39.6093C40.192 38.9733 40.192 38.9733 40.5952 38.3246C43.6574 33.2711 45.1974 28.3948 44.25 22.4999C43.0085 20.0862 41.2599 18.5391 39.0469 16.9686C34.1025 15.4703 31.2258 17.0411 27.5156 20.2499ZM48 22.4999C47.9719 23.1341 47.9439 23.7683 47.915 24.4218C47.6217 29.4829 47.0876 33.6209 45 38.2499C45.99 38.2499 46.98 38.2499 48 38.2499C48 39.4874 48 40.7249 48 41.9999C46.7625 41.9999 45.525 41.9999 44.25 41.9999C44.0025 41.2574 43.755 40.5149 43.5 39.7499C43.5 42.4724 43.5 45.1949 43.5 47.9999C46.965 47.9999 50.43 47.9999 54 47.9999C54 39.5849 54 31.1699 54 22.4999C52.02 22.4999 50.04 22.4999 48 22.4999ZM57.75 29.2499C57.75 29.4974 57.75 29.7449 57.75 29.9999C58.9875 29.9999 60.225 29.9999 61.5 29.9999C61.5 31.2374 61.5 32.4749 61.5 33.7499C60.2625 33.7499 59.025 33.7499 57.75 33.7499C57.75 33.9974 57.75 34.2449 57.75 34.4999C58.9875 34.4999 60.225 34.4999 61.5 34.4999C61.5 35.9849 61.5 37.4699 61.5 38.9999C60.2625 38.9999 59.025 38.9999 57.75 38.9999C57.75 41.9699 57.75 44.9399 57.75 47.9999C57.9975 47.9999 58.245 47.9999 58.5 47.9999C58.7475 45.2774 58.995 42.5549 59.25 39.7499C62.4675 39.7499 65.685 39.7499 69 39.7499C69 42.4724 69 45.1949 69 47.9999C69.2475 47.9999 69.495 47.9999 69.75 47.9999C69.75 45.0299 69.75 42.0599 69.75 38.9999C68.76 38.9999 67.77 38.9999 66.75 38.9999C66.75 37.5149 66.75 36.0299 66.75 34.4999C67.74 34.2524 68.73 34.0049 69.75 33.7499C68.76 33.7499 67.77 33.7499 66.75 33.7499C66.75 32.5124 66.75 31.2749 66.75 29.9999C67.74 29.7524 68.73 29.5049 69.75 29.2499C65.79 29.2499 61.83 29.2499 57.75 29.2499ZM63 43.4999C63 44.9849 63 46.4699 63 47.9999C63.7425 47.9999 64.485 47.9999 65.25 47.9999C65.25 46.5149 65.25 45.0299 65.25 43.4999C64.5075 43.4999 63.765 43.4999 63 43.4999Z" fill="#333333" fill-opacity="0.05"/>
<path d="M53.8125 54.797C56.7748 56.563 58.2859 58.229 59.25 61.5001C59.8367 66.4739 59.8228 70.7659 57 75.0001C57.5723 75.2631 58.1447 75.526 58.7344 75.797C61.2659 77.6221 62.1564 79.5771 63 82.5001C63.263 84.7307 63.2494 86.9136 63.1875 89.1563C63.1836 89.7345 63.1798 90.3126 63.1758 90.9083C63.1163 95.1338 63.1163 95.1338 62.25 96.0001C60.1501 96.0759 58.069 96.1049 55.9688 96.0997C55.339 96.1004 54.7093 96.1011 54.0604 96.1019C52.7263 96.1024 51.3922 96.101 50.0581 96.0979C48.0088 96.0939 45.9595 96.0978 43.9102 96.1026C42.6172 96.1021 41.3242 96.1012 40.0313 96.0997C39.4141 96.1012 38.7969 96.1027 38.161 96.1043C33.8362 96.0863 33.8362 96.0863 33 95.2501C32.8839 93.2085 32.8262 91.199 32.8125 89.1563C32.797 88.5956 32.7816 88.0349 32.7656 87.4571C32.738 83.4863 33.3745 80.7662 35.25 77.2501C37.2656 75.422 37.2656 75.422 39 74.2501C38.6355 73.7222 38.271 73.1944 37.8955 72.6505C35.816 68.7468 36.0037 64.0365 37.2422 59.8272C38.4708 57.3436 39.8246 56.2056 42.1875 54.797C46.4848 53.5794 49.5152 53.5794 53.8125 54.797ZM42.75 59.2501C41.2301 61.4135 41.2301 61.4135 40.5 63.7501C40.7475 64.2451 40.995 64.7401 41.25 65.2501C42.2367 64.913 43.2205 64.5677 44.2031 64.2188C44.7513 64.0274 45.2995 63.836 45.8643 63.6388C47.3901 63.1106 47.3901 63.1106 48 61.5001C50.719 61.349 52.3988 61.6068 54.75 63.0001C54.4477 61.1124 54.4477 61.1124 53.25 59.2501C49.6896 57.478 46.263 57.2893 42.75 59.2501ZM46.5 67.5001C44.7649 68.0495 43.0157 68.5587 41.25 69.0001C42.3811 72.1671 44.2911 73.5207 47.25 75.0001C50.3886 74.6158 51.9258 73.4994 53.9063 71.1563C54.4322 70.4448 54.9581 69.7332 55.5 69.0001C54.09 67.439 52.9177 66.1959 51 65.297C48.8881 65.231 48.1588 66.2204 46.5 67.5001ZM37.5 81.7501C37.5 85.2151 37.5 88.6801 37.5 92.2501C44.43 92.2501 51.36 92.2501 58.5 92.2501C58.5 88.7851 58.5 85.3201 58.5 81.7501C55.9169 78.5162 55.9169 78.5162 53.0625 78.5626C52.3819 78.6245 51.7013 78.6863 51 78.7501C51.263 79.4153 51.5259 80.0804 51.7969 80.7657C52.527 83.3456 52.6897 84.5167 51.75 87.0001C50.4375 88.4532 50.4375 88.4532 48.75 89.2501C46.3968 88.6338 45.2231 87.9732 43.5 86.2501C43.7781 83.6913 44.3314 81.2333 45 78.7501C40.8743 78.375 40.6966 78.5535 37.5 81.7501ZM47.25 83.2501C47.25 83.7451 47.25 84.2401 47.25 84.7501C47.745 84.7501 48.24 84.7501 48.75 84.7501C48.75 84.2551 48.75 83.7601 48.75 83.2501C48.255 83.2501 47.76 83.2501 47.25 83.2501Z" fill="#333333" fill-opacity="0.05"/>
<path d="M20.1094 54.9374C23.1586 56.6115 24.3695 57.9893 25.377 61.3271C26.244 66.2214 26.5437 69.1662 24 73.4999C23.7525 73.9949 23.505 74.4899 23.25 74.9999C23.9616 75.4331 24.6731 75.8662 25.4063 76.3124C27.6971 77.9618 28.2902 78.4908 29.25 80.9999C29.4322 82.6367 29.4322 82.6367 29.4229 84.3837C29.4214 85.0136 29.42 85.6435 29.4185 86.2924C29.4047 87.2691 29.4047 87.2691 29.3906 88.2656C29.3902 88.9254 29.3897 89.5852 29.3892 90.2651C29.3553 95.1446 29.3553 95.1446 28.5 95.9999C26.3913 96.0664 24.3011 96.0863 22.1924 96.0732C21.5609 96.0721 20.9293 96.071 20.2787 96.07C18.2535 96.0657 16.2283 96.0563 14.2031 96.0468C12.8335 96.043 11.4639 96.0396 10.0942 96.0365C6.72948 96.0283 3.36475 96.0153 9.05991e-06 95.9999C-0.109576 93.469 -0.175742 90.9387 -0.234366 88.4062C-0.265787 87.6927 -0.297208 86.9792 -0.329581 86.2441C-0.389177 82.8113 -0.428558 80.2679 1.74903 77.4902C3.75001 75.7499 3.75001 75.7499 6.00001 75.7499C5.50501 75.0538 5.01001 74.3577 4.50001 73.6406C2.40765 69.9771 2.49121 66.3576 3.00001 62.2499C4.2329 58.681 5.88411 56.8532 9.00001 54.7499C12.7821 53.4892 16.4078 53.4914 20.1094 54.9374ZM8.39063 60.2812C7.205 61.652 7.205 61.652 7.50001 64.4999C10.0785 64.364 10.0785 64.364 12.75 63.7499C13.8847 62.298 13.8847 62.298 14.25 60.7499C19.3125 62.1562 19.3125 62.1562 21 62.9999C20.6977 61.1123 20.6977 61.1123 19.5 59.2499C15.3486 57.2255 12.07 57.4899 8.39063 60.2812ZM16.5 65.2499C15.2408 65.9844 13.9925 66.7375 12.75 67.4999C11.0123 68.0412 9.26364 68.5504 7.50001 68.9999C8.74356 71.7065 9.67794 72.7072 12.2813 74.2499C14.905 75.2592 14.905 75.2592 17.0156 74.2499C18.8667 72.649 20.3091 70.9746 21.75 68.9999C19.9778 67.1055 19.0015 66.0838 16.5 65.2499ZM3.75001 81.7499C3.75001 85.2149 3.75001 88.6799 3.75001 92.2499C10.9275 92.2499 18.105 92.2499 25.5 92.2499C26.2718 83.8073 26.2718 83.8073 23.25 79.4999C21.2184 78.4841 19.493 78.7012 17.25 78.7499C17.513 79.4151 17.7759 80.0802 18.0469 80.7656C18.7757 83.3408 18.8758 84.5074 18 86.9999C17.0625 88.4062 17.0625 88.4062 15.75 89.2499C13.4754 89.1931 12.3436 88.766 10.5469 87.3749C9.27866 84.3909 10.3539 81.7671 11.25 78.7499C7.12428 78.3749 6.94662 78.5533 3.75001 81.7499ZM14.25 83.2499C14.0025 83.7449 13.755 84.2399 13.5 84.7499C13.995 84.7499 14.49 84.7499 15 84.7499C14.7525 84.2549 14.505 83.7599 14.25 83.2499Z" fill="#333333" fill-opacity="0.05"/>
<path d="M87.1875 54.8906C90.1767 56.8608 91.8674 58.8521 93 62.25C93.3882 67.0059 93.427 70.873 90.75 75C91.477 75.5878 92.2041 76.1756 92.9531 76.7813C94.3797 77.9347 95.1722 78.5945 96 80.25C96.063 81.4459 96.0805 82.6443 96.0732 83.8418C96.0708 84.5476 96.0684 85.2533 96.0659 85.9805C96.0565 87.0884 96.0565 87.0884 96.0469 88.2188C96.0435 88.9632 96.0401 89.7076 96.0366 90.4746C96.0278 92.3165 96.0154 94.1582 96 96C91.9549 96.0185 87.9098 96.0321 83.8647 96.0412C82.4875 96.045 81.1103 96.0501 79.7331 96.0566C77.7579 96.0656 75.7828 96.0699 73.8076 96.0732C72.8783 96.0791 72.8783 96.0791 71.9302 96.085C70.4532 96.0851 68.9763 96.0465 67.5 96C65.8971 94.3972 66.5764 90.9459 66.5625 88.7344C66.547 88.1316 66.5316 87.5288 66.5156 86.9077C66.4908 83.1173 66.8895 80.528 69 77.25C71.0156 75.4688 71.0156 75.4688 72.75 74.25C72.3942 73.8633 72.0384 73.4766 71.6719 73.0781C69.5143 69.7123 69.5488 66.3657 70.2188 62.5313C71.0393 59.2984 72.3145 57.561 75 55.5C78.9257 53.2719 83.0609 53.3828 87.1875 54.8906ZM75.75 60C74.5462 61.403 74.5462 61.403 74.25 63C74.4975 63.7425 74.745 64.485 75 65.25C78.6717 63.8422 78.6717 63.8422 81.75 61.5C84.1411 61.7544 86.2184 62.2395 88.5 63C87.6362 61.149 86.9641 59.9641 85.5 58.5C81.6065 57.3229 79.2624 58.0412 75.75 60ZM81.5625 66.2813C79.4222 67.546 77.3728 68.2826 75 69C76.3106 71.9237 77.4551 73.7251 80.4844 74.9531C83.3835 75.0206 84.7574 73.7443 87 72C87.495 71.505 87.99 71.01 88.5 70.5C88.5 69.51 88.5 68.52 88.5 67.5C85.1777 65.0389 85.1777 65.0389 81.5625 66.2813ZM71.25 81C70.0257 84.2777 70.0257 84.2777 70.5 92.25C77.6775 92.25 84.855 92.25 92.25 92.25C92.25 88.785 92.25 85.32 92.25 81.75C89.6669 78.5161 89.6669 78.5161 86.8125 78.5625C86.1319 78.6244 85.4513 78.6863 84.75 78.75C84.9018 79.1938 85.0536 79.6375 85.21 80.0947C85.7482 81.9381 86.1442 83.5803 86.25 85.5C84.6562 87.8438 84.6562 87.8438 82.5 89.25C80.5723 89.25 79.757 88.6595 78.1406 87.6563C76.7074 85.3933 77.459 83.5249 78 81C78.2475 80.2575 78.495 79.515 78.75 78.75C75.4488 78.5249 73.6408 78.6092 71.25 81ZM81 83.25C81 83.745 81 84.24 81 84.75C81.495 84.5025 81.99 84.255 82.5 84C82.005 83.7525 81.51 83.505 81 83.25Z" fill="#333333" fill-opacity="0.05"/>
<path d="M39 19.4999C40.4062 20.2968 40.4062 20.2968 41.25 21.7499C41.9367 24.4623 42.288 26.838 41.4375 29.5312C40.5 30.7499 40.5 30.7499 38.25 32.2499C32.911 32.7584 32.911 32.7584 30.4219 30.8437C28.4686 28.1872 28.1757 26.5579 28.5 23.2499C31.4352 18.6953 33.8344 18.393 39 19.4999ZM33 23.2499C32.4207 24.6277 32.4207 24.6277 32.25 26.2499C33.0625 27.6874 33.0625 27.6874 34.5 28.4999C36.1222 28.3292 36.1222 28.3292 37.5 27.7499C38.0111 26.3311 38.0111 26.3311 38.25 24.7499C36.8709 23.0345 36.8709 23.0345 34.7812 23.1562C33.8995 23.2026 33.8995 23.2026 33 23.2499Z" fill="#333333" fill-opacity="0.05"/>
<path d="M75.75 10.5C76.74 11.2425 77.73 11.985 78.75 12.75C78.255 13.74 77.76 14.73 77.25 15.75C76.26 15.5025 75.27 15.255 74.25 15C74.25 12 74.25 12 75.75 10.5Z" fill="#333333" fill-opacity="0.05"/>
<path d="M19.5 10.5C20.49 11.2425 21.48 11.985 22.5 12.75C22.005 13.74 21.51 14.73 21 15.75C20.01 15.5025 19.02 15.255 18 15C18 12 18 12 19.5 10.5Z" fill="#333333" fill-opacity="0.05"/>
<path d="M62.25 34.5C63.4875 34.5 64.725 34.5 66 34.5C66 35.985 66 37.47 66 39C64.7625 39 63.525 39 62.25 39C62.25 37.515 62.25 36.03 62.25 34.5Z" fill="#333333" fill-opacity="0.05"/>
<path d="M49.5 33C50.7375 33 51.975 33 53.25 33C53.25 34.485 53.25 35.97 53.25 37.5C52.0125 37.5 50.775 37.5 49.5 37.5C49.5 36.015 49.5 34.53 49.5 33Z" fill="#333333" fill-opacity="0.05"/>
<path d="M70.5 6.75C72.3562 7.4925 72.3562 7.4925 74.25 8.25C73.755 9.24 73.26 10.23 72.75 11.25C70.5 11.25 70.5 11.25 69 10.5C69.495 9.2625 69.99 8.025 70.5 6.75Z" fill="#333333" fill-opacity="0.05"/>
<path d="M6.75002 33C7.98752 33.2475 9.22502 33.495 10.5 33.75C10.5 34.9875 10.5 36.225 10.5 37.5C9.26252 37.5 8.02502 37.5 6.75002 37.5C5.81592 35.6318 6.16745 34.9419 6.75002 33Z" fill="#333333" fill-opacity="0.05"/>
<path d="M24 6.75C24.7425 6.9975 25.485 7.245 26.25 7.5C26.7656 9.04688 26.7656 9.04688 27 10.5C25.515 11.2425 25.515 11.2425 24 12C22.875 10.9688 22.875 10.9688 21.75 9.75C21.75 9.255 21.75 8.76 21.75 8.25C22.4925 7.755 23.235 7.26 24 6.75Z" fill="#333333" fill-opacity="0.05"/>
<path d="M31.5 3.75C31.7475 4.9875 31.995 6.225 32.25 7.5C31.0125 7.7475 29.775 7.995 28.5 8.25C28.005 7.26 27.51 6.27 27 5.25C29.25 3.75 29.25 3.75 31.5 3.75Z" fill="#333333" fill-opacity="0.05"/>
<path d="M58.5 1.5C60.7275 1.87125 60.7275 1.87125 63 2.25C62.505 3.4875 62.01 4.725 61.5 6C60.2625 5.7525 59.025 5.505 57.75 5.25C57.9975 4.0125 58.245 2.775 58.5 1.5Z" fill="#333333" fill-opacity="0.05"/>
<path d="M89.25 33C89.4975 34.2375 89.745 35.475 90 36.75C88.515 36.9975 87.03 37.245 85.5 37.5C85.5 36.2625 85.5 35.025 85.5 33.75C87 33 87 33 89.25 33Z" fill="#333333" fill-opacity="0.05"/>
<path d="M84.75 27C85.74 27 86.73 27 87.75 27C87.9975 28.2375 88.245 29.475 88.5 30.75C87.2625 30.9975 86.025 31.245 84.75 31.5C84.4634 30.2579 84.2145 29.0066 84 27.75C84.2475 27.5025 84.495 27.255 84.75 27Z" fill="#333333" fill-opacity="0.05"/>
<path d="M83.25 21C83.9925 21.2475 84.735 21.495 85.5 21.75C86.0156 23.2969 86.0156 23.2969 86.25 24.75C85.0125 24.9975 83.775 25.245 82.5 25.5C82.005 24.51 81.51 23.52 81 22.5C81.7425 22.005 82.485 21.51 83.25 21Z" fill="#333333" fill-opacity="0.05"/>
<path d="M11.25 21C13.1062 21.7425 13.1062 21.7425 15 22.5C14.505 23.49 14.01 24.48 13.5 25.5C12.2625 25.2525 11.025 25.005 9.75 24.75C10.245 23.5125 10.74 22.275 11.25 21Z" fill="#333333" fill-opacity="0.05"/>
<path d="M79.5 15.75C80.2425 15.75 80.985 15.75 81.75 15.75C82.245 16.74 82.74 17.73 83.25 18.75C81 20.25 81 20.25 78.75 20.25C78.2812 18.8438 78.2812 18.8438 78 17.25C78.495 16.755 78.99 16.26 79.5 15.75Z" fill="#333333" fill-opacity="0.05"/>
<path d="M14.25 15.75C15.7031 15.9844 15.7031 15.9844 17.25 16.5C17.4975 17.2425 17.745 17.985 18 18.75C17.7525 19.245 17.505 19.74 17.25 20.25C16.0125 20.0025 14.775 19.755 13.5 19.5C13.5 17.25 13.5 17.25 14.25 15.75Z" fill="#333333" fill-opacity="0.05"/>
<path d="M64.5 3.75C65.7375 3.9975 66.975 4.245 68.25 4.5C68.0025 5.7375 67.755 6.975 67.5 8.25C66.2625 8.0025 65.025 7.755 63.75 7.5C63.9975 6.2625 64.245 5.025 64.5 3.75Z" fill="#333333" fill-opacity="0.05"/>
<path d="M37.5 1.5C37.7475 2.7375 37.995 3.975 38.25 5.25C37.0125 5.4975 35.775 5.745 34.5 6C34.005 4.7625 33.51 3.525 33 2.25C34.5 1.5 34.5 1.5 37.5 1.5Z" fill="#333333" fill-opacity="0.05"/>
<path d="M52.5 0C53.7375 0 54.975 0 56.25 0C56.25 1.2375 56.25 2.475 56.25 3.75C55.5075 3.9975 54.765 4.245 54 4.5C53.2575 4.005 52.515 3.51 51.75 3C51.9975 2.01 52.245 1.02 52.5 0Z" fill="#333333" fill-opacity="0.05"/>
<path d="M45.75 0C47.235 0 48.72 0 50.25 0C50.0025 1.2375 49.755 2.475 49.5 3.75C48.2625 3.75 47.025 3.75 45.75 3.75C45.75 2.5125 45.75 1.275 45.75 0Z" fill="#333333" fill-opacity="0.05"/>
<path d="M39.75 0C40.9875 0 42.225 0 43.5 0C43.5 1.2375 43.5 2.475 43.5 3.75C42.2625 3.9975 41.025 4.245 39.75 4.5C39.75 3.015 39.75 1.53 39.75 0Z" fill="#333333" fill-opacity="0.05"/>
<path d="M8.25 27C9.4875 27.2475 10.725 27.495 12 27.75C11.7525 28.9875 11.505 30.225 11.25 31.5C10.0125 31.2525 8.775 31.005 7.5 30.75C7.7475 29.5125 7.995 28.275 8.25 27Z" fill="#333333" fill-opacity="0.05"/>
<path d="M49.5 42.75C50.7375 42.75 51.975 42.75 53.25 42.75C53.25 43.9875 53.25 45.225 53.25 46.5C52.0125 46.5 50.775 46.5 49.5 46.5C49.5 45.2625 49.5 44.025 49.5 42.75Z" fill="#333333" fill-opacity="0.05"/>
<path d="M44.25 42.75C45.4875 42.75 46.725 42.75 48 42.75C48 43.9875 48 45.225 48 46.5C46.7625 46.5 45.525 46.5 44.25 46.5C44.25 45.2625 44.25 44.025 44.25 42.75Z" fill="#333333" fill-opacity="0.05"/>
<path d="M49.5 38.25C50.7375 38.25 51.975 38.25 53.25 38.25C53.25 39.4875 53.25 40.725 53.25 42C52.0125 42 50.775 42 49.5 42C49.5 40.7625 49.5 39.525 49.5 38.25Z" fill="#333333" fill-opacity="0.05"/>
<path d="M62.25 30C63.4875 30 64.725 30 66 30C66 31.2375 66 32.475 66 33.75C64.7625 33.75 63.525 33.75 62.25 33.75C62.25 32.5125 62.25 31.275 62.25 30Z" fill="#333333" fill-opacity="0.05"/>
<path d="M49.5 28.5C50.7375 28.5 51.975 28.5 53.25 28.5C53.25 29.7375 53.25 30.975 53.25 32.25C52.0125 32.25 50.775 32.25 49.5 32.25C49.5 31.0125 49.5 29.775 49.5 28.5Z" fill="#333333" fill-opacity="0.05"/>
<path d="M49.5 24C50.7375 24 51.975 24 53.25 24C53.25 25.2375 53.25 26.475 53.25 27.75C52.0125 27.75 50.775 27.75 49.5 27.75C49.5 26.5125 49.5 25.275 49.5 24Z" fill="#333333" fill-opacity="0.05"/>
</g>
<defs>
<clipPath id="clip0_118_5827">
<rect width="96" height="96" fill="white"/>
</clipPath>
</defs>
</svg>
